<?xml version="1.0" encoding="UTF-8" standalone="no"?>
<svg
   xmlns:osb="http://www.openswatchbook.org/uri/2009/osb"
   xmlns:dc="http://purl.org/dc/elements/1.1/"
   xmlns:cc="http://creativecommons.org/ns#"
   xmlns:rdf="http://www.w3.org/1999/02/22-rdf-syntax-ns#"
   xmlns:svg="http://www.w3.org/2000/svg"
   xmlns="http://www.w3.org/2000/svg"
   xmlns:xlink="http://www.w3.org/1999/xlink"
   xmlns:sodipodi="http://sodipodi.sourceforge.net/DTD/sodipodi-0.dtd"
   xmlns:inkscape="http://www.inkscape.org/namespaces/inkscape"
   width="600mm"
   height="400mm"
   viewBox="0 0 600 400"
   version="1.1"
   id="svg8"
   inkscape:version="0.92.4 (5da689c313, 2019-01-14)"
   sodipodi:docname="coaster-template.svg">
  <defs
     id="defs2">
    <linearGradient
       id="linearGradient848"
       osb:paint="solid">
      <stop
         style="stop-color:#000000;stop-opacity:1;"
         offset="0"
         id="stop846" />
    </linearGradient>
    <linearGradient
       id="linearGradient844">
      <stop
         offset="0"
         stop-opacity=".2"
         id="stop845" />
      <stop
         offset="1"
         stop-opacity="0"
         stop-color="#fff"
         id="stop846-7" />
    </linearGradient>
    <linearGradient
       x1="74.179063"
       x2="21.135638"
       y1="183.45158"
       xlink:href="#linearGradient844"
       y2="112.29455"
       id="linearGradient847"
       gradientTransform="matrix(1.2518566,1.1157087,-0.3967739,0.44519151,442.23991,1283.6105)"
       gradientUnits="userSpaceOnUse" />
    <linearGradient
       x1="48.731837"
       x2="5.5020185"
       y1="179.47747"
       xlink:href="#linearGradient844"
       y2="169.47192"
       id="linearGradient849"
       gradientTransform="matrix(1.9689504,1.7548136,-0.25226843,0.28305229,442.23991,1283.6105)"
       gradientUnits="userSpaceOnUse" />
  </defs>
  <sodipodi:namedview
     id="base"
     pagecolor="#ffffff"
     bordercolor="#666666"
     borderopacity="1.0"
     inkscape:pageopacity="0.0"
     inkscape:pageshadow="2"
     inkscape:zoom="2.2547876"
     inkscape:cx="399.37573"
     inkscape:cy="207.41895"
     inkscape:document-units="mm"
     inkscape:current-layer="layer1"
     showgrid="false"
     inkscape:window-width="2560"
     inkscape:window-height="1351"
     inkscape:window-x="-9"
     inkscape:window-y="-9"
     inkscape:window-maximized="1"
     inkscape:document-rotation="0" />
  <metadata
     id="metadata5">
    <rdf:RDF>
      <cc:Work
         rdf:about="">
        <dc:format>image/svg+xml</dc:format>
        <dc:type
           rdf:resource="http://purl.org/dc/dcmitype/StillImage" />
        <dc:title />
      </cc:Work>
    </rdf:RDF>
  </metadata>
  <g
     inkscape:label="Layer 1"
     inkscape:groupmode="layer"
     id="layer1"
     transform="translate(0,103)">
    <path
       style="opacity:1;fill:none;fill-opacity:1;stroke:#ff00ff;stroke-width:0.49999994;stroke-miterlimit:4;stroke-dasharray:none;stroke-opacity:1;paint-order:fill markers stroke"
       d="M 13.848279,188.86702 H 113.84828 v 100 H 13.848279 Z"
       id="rect844" />
    <path
       style="fill:#ff0000;fill-opacity:1;stroke:#ff0000;stroke-width:0.10583334;stroke-miterlimit:4;stroke-dasharray:none;stroke-opacity:1"
       d="m 23.883472,196.68018 h 14.894167 v 14.89416 H 23.883472 Z"
       id="rect2642" />
    <path
       style="fill:#ffff00;fill-opacity:1;stroke:#ffff00;stroke-width:0.10583334;stroke-miterlimit:4;stroke-dasharray:none;stroke-opacity:1"
       d="M 23.883472,213.82024 H 38.777639 V 228.7144 H 23.883472 Z"
       id="rect2642-0" />
    <path
       style="fill:#008000;fill-opacity:1;stroke:#008000;stroke-width:0.10583334;stroke-miterlimit:4;stroke-dasharray:none;stroke-opacity:1"
       d="m 23.883472,230.9603 h 14.894167 v 14.89416 H 23.883472 Z"
       id="rect2642-0-5" />
    <path
       style="fill:#0000ff;fill-opacity:1;stroke:#0000ff;stroke-width:0.10583334;stroke-miterlimit:4;stroke-dasharray:none;stroke-opacity:1"
       d="m 23.883472,248.10036 h 14.894167 v 14.89416 H 23.883472 Z"
       id="rect2642-0-5-8" />
    <path
       style="fill:#800080;fill-opacity:1;stroke:#800080;stroke-width:0.10583334;stroke-miterlimit:4;stroke-dasharray:none;stroke-opacity:1"
       d="m 23.883472,265.24039 h 14.894167 v 14.89416 H 23.883472 Z"
       id="rect2642-0-5-4" />
    <g
       aria-label="Speed: 200 / Power: 15 / Passes: 1"
       transform="scale(0.89357153,1.1191046)"
       style="font-style:normal;font-variant:normal;font-weight:normal;font-stretch:normal;font-size:2.83708954px;line-height:1.25;font-family:'Nunito Sans';-inkscape-font-specification:'Nunito Sans';text-align:start;text-anchor:start;fill:#000000;fill-opacity:1;stroke:#000000;stroke-width:0.10583334;stroke-miterlimit:4;stroke-dasharray:none;stroke-opacity:1"
       id="text2759">
      <path
         d="m 53.617259,183.23783 q -0.46812,0 -0.748991,-0.2525 l 0.09079,-0.17874 q 0.147529,0.12483 0.300732,0.17874 0.15604,0.0539 0.36031,0.0539 0.241153,0 0.371659,-0.0936 0.130506,-0.0936 0.130506,-0.26385 0,-0.0993 -0.06242,-0.16171 -0.06242,-0.0624 -0.164551,-0.0993 -0.102135,-0.0369 -0.275198,-0.0766 -0.232641,-0.0539 -0.383007,-0.11349 -0.147528,-0.0596 -0.241152,-0.17022 -0.09079,-0.11065 -0.09079,-0.28938 0,-0.17023 0.08795,-0.30074 0.09079,-0.13334 0.255339,-0.20427 0.167388,-0.0738 0.385844,-0.0738 0.207107,0 0.385844,0.0652 0.181574,0.0652 0.306406,0.18725 l -0.08795,0.17874 q -0.141855,-0.122 -0.289383,-0.1759 -0.144692,-0.0567 -0.314917,-0.0567 -0.232642,0 -0.365985,0.0993 -0.130506,0.0965 -0.130506,0.27236 0,0.15037 0.116321,0.22697 0.11632,0.0766 0.351799,0.13051 0.258175,0.0624 0.405704,0.11632 0.147528,0.0511 0.243989,0.15604 0.0993,0.10497 0.0993,0.28087 0,0.17022 -0.09079,0.29789 -0.08795,0.12767 -0.255338,0.1986 -0.167389,0.0681 -0.391519,0.0681 z"
         style="fill:#000000;stroke:#000000;stroke-width:0.10583334"
         id="path943" />
      <path
         d="m 55.393809,181.79943 q 0.181574,0 0.320591,0.0908 0.139018,0.0908 0.215619,0.25534 0.0766,0.16172 0.0766,0.37733 0,0.21562 -0.0766,0.37734 -0.0766,0.15887 -0.215619,0.24682 -0.13618,0.088 -0.320591,0.088 -0.161714,0 -0.283709,-0.0709 -0.119158,-0.0709 -0.181574,-0.20144 v 0.76318 h -0.229804 v -1.89234 h 0.229804 v 0.23832 q 0.06242,-0.13051 0.181574,-0.20144 0.121995,-0.0709 0.283709,-0.0709 z m -0.04539,1.24548 q 0.201433,0 0.31208,-0.13618 0.110646,-0.13618 0.110646,-0.38585 0,-0.24966 -0.110646,-0.38868 -0.110647,-0.14185 -0.31208,-0.14185 -0.201434,0 -0.31208,0.13618 -0.10781,0.13618 -0.10781,0.38868 0,0.2525 0.10781,0.39152 0.110646,0.13618 0.31208,0.13618 z"
         style="fill:#000000;stroke:#000000;stroke-width:0.10583334"
         id="path945" />
      <path
         d="m 57.507529,182.55977 h -1.010003 q 0.01135,0.24115 0.130506,0.36598 0.119157,0.122 0.337613,0.122 0.241153,0 0.442586,-0.16456 l 0.0766,0.16739 q -0.09079,0.0851 -0.232642,0.13618 -0.141854,0.0482 -0.289383,0.0482 -0.323428,0 -0.510676,-0.19008 -0.184411,-0.19009 -0.184411,-0.52486 0,-0.21278 0.08228,-0.3745 0.08227,-0.16455 0.229804,-0.25534 0.150366,-0.0908 0.340451,-0.0908 0.275198,0 0.431237,0.18157 0.15604,0.17874 0.15604,0.49365 z m -0.58444,-0.58161 q -0.181574,0 -0.29222,0.11349 -0.10781,0.11348 -0.127669,0.32059 h 0.802896 q -0.0057,-0.20995 -0.104972,-0.32059 -0.0993,-0.11349 -0.278035,-0.11349 z"
         style="fill:#000000;stroke:#000000;stroke-width:0.10583334"
         id="path947" />
      <path
         d="m 59.003651,182.55977 h -1.010004 q 0.01135,0.24115 0.130506,0.36598 0.119158,0.122 0.337614,0.122 0.241152,0 0.442586,-0.16456 l 0.0766,0.16739 q -0.09079,0.0851 -0.232641,0.13618 -0.141855,0.0482 -0.289383,0.0482 -0.323429,0 -0.510677,-0.19008 -0.18441,-0.19009 -0.18441,-0.52486 0,-0.21278 0.08227,-0.3745 0.08228,-0.16455 0.229805,-0.25534 0.150365,-0.0908 0.34045,-0.0908 0.275198,0 0.431238,0.18157 0.15604,0.17874 0.15604,0.49365 z m -0.584441,-0.58161 q -0.181573,0 -0.29222,0.11349 -0.107809,0.11348 -0.127669,0.32059 h 0.802896 q -0.0057,-0.20995 -0.104972,-0.32059 -0.0993,-0.11349 -0.278035,-0.11349 z"
         style="fill:#000000;stroke:#000000;stroke-width:0.10583334"
         id="path949" />
      <path
         d="m 60.567862,181.21499 v 2.00014 h -0.229804 v -0.2525 q -0.06242,0.13051 -0.184411,0.20144 -0.119157,0.0709 -0.280872,0.0709 -0.181573,0 -0.320591,-0.0908 -0.139017,-0.0908 -0.215619,-0.2525 -0.0766,-0.16456 -0.0766,-0.38017 0,-0.21279 0.0766,-0.3745 0.0766,-0.16171 0.215619,-0.24966 0.139018,-0.088 0.320591,-0.088 0.161715,0 0.280872,0.0709 0.121995,0.0709 0.184411,0.20144 v -0.8568 z m -0.649693,1.82992 q 0.201433,0 0.309243,-0.13618 0.110646,-0.13902 0.110646,-0.39152 0,-0.2525 -0.110646,-0.38868 -0.10781,-0.13618 -0.309243,-0.13618 -0.201434,0 -0.314917,0.13618 -0.110647,0.13618 -0.110647,0.38301 0,0.2525 0.110647,0.39435 0.113483,0.13902 0.314917,0.13902 z"
         style="fill:#000000;stroke:#000000;stroke-width:0.10583334"
         id="path951" />
      <path
         d="m 60.95947,181.83347 h 0.289383 v 0.29222 H 60.95947 Z m 0,1.09228 h 0.289383 v 0.28938 H 60.95947 Z"
         style="fill:#000000;stroke:#000000;stroke-width:0.10583334"
         id="path953" />
      <path
         d="m 63.68968,183.01937 v 0.19576 h -1.288038 v -0.1759 l 0.700761,-0.77168 q 0.141854,-0.15888 0.20427,-0.28371 0.06525,-0.12767 0.06525,-0.25534 0,-0.16455 -0.09646,-0.2525 -0.09646,-0.088 -0.27236,-0.088 -0.289383,0 -0.567418,0.2298 l -0.08795,-0.17873 q 0.119158,-0.11349 0.297894,-0.17874 0.181574,-0.0681 0.363148,-0.0681 0.275198,0 0.434075,0.14185 0.161714,0.14186 0.161714,0.38301 0,0.17306 -0.07944,0.33194 -0.0766,0.15888 -0.255338,0.35464 l -0.567418,0.61564 z"
         style="fill:#000000;stroke:#000000;stroke-width:0.10583334"
         id="path955" />
      <path
         d="m 64.712762,183.23783 q -0.343288,0 -0.522024,-0.26101 -0.178737,-0.26101 -0.178737,-0.76034 0,-0.50217 0.178737,-0.76318 0.178736,-0.26101 0.522024,-0.26101 0.343288,0 0.522025,0.26101 0.178736,0.25818 0.178736,0.76034 0,0.50217 -0.178736,0.76318 -0.178737,0.26101 -0.522025,0.26101 z m 0,-0.19576 q 0.238316,0 0.351799,-0.20143 0.113484,-0.20144 0.113484,-0.627 0,-0.4284 -0.113484,-0.62416 -0.110646,-0.19859 -0.351799,-0.19859 -0.238315,0 -0.351799,0.19859 -0.113484,0.1986 -0.113484,0.62416 0,0.42556 0.113484,0.627 0.113484,0.20143 0.351799,0.20143 z"
         style="fill:#000000;stroke:#000000;stroke-width:0.10583334"
         id="path957" />
      <path
         d="m 66.413907,183.23783 q -0.343288,0 -0.522024,-0.26101 -0.178737,-0.26101 -0.178737,-0.76034 0,-0.50217 0.178737,-0.76318 0.178736,-0.26101 0.522024,-0.26101 0.343288,0 0.522025,0.26101 0.178736,0.25818 0.178736,0.76034 0,0.50217 -0.178736,0.76318 -0.178737,0.26101 -0.522025,0.26101 z m 0,-0.19576 q 0.238316,0 0.351799,-0.20143 0.113484,-0.20144 0.113484,-0.627 0,-0.4284 -0.113484,-0.62416 -0.110646,-0.19859 -0.351799,-0.19859 -0.238315,0 -0.351799,0.19859 -0.113483,0.1986 -0.113483,0.62416 0,0.42556 0.113483,0.627 0.113484,0.20143 0.351799,0.20143 z"
         style="fill:#000000;stroke:#000000;stroke-width:0.10583334"
         id="path959" />
      <path
         d="m 68.128706,183.39954 -0.190085,-0.0624 0.723458,-2.25832 0.190085,0.0624 z"
         style="fill:#000000;stroke:#000000;stroke-width:0.10583334"
         id="path961" />
      <path
         d="m 69.7771,181.21499 h 0.791548 q 0.314917,0 0.48798,0.1532 0.175899,0.1532 0.175899,0.43407 0,0.28087 -0.175899,0.43691 -0.1759,0.15604 -0.48798,0.15604 h -0.558906 v 0.81992 H 69.7771 Z m 0.768851,0.9873 q 0.456772,0 0.456772,-0.40003 0,-0.39435 -0.456772,-0.39435 h -0.536209 v 0.79438 z"
         style="fill:#000000;stroke:#000000;stroke-width:0.10583334"
         id="path963" />
      <path
         d="m 72.100411,183.23499 q -0.195759,0 -0.346125,-0.088 -0.147529,-0.088 -0.229804,-0.24966 -0.07944,-0.16455 -0.07944,-0.38017 0,-0.21562 0.07944,-0.37733 0.08227,-0.16455 0.229804,-0.2525 0.150366,-0.088 0.346125,-0.088 0.195759,0 0.346125,0.088 0.150366,0.088 0.229804,0.2525 0.08228,0.16171 0.08228,0.37733 0,0.21562 -0.08228,0.38017 -0.07944,0.16171 -0.229804,0.24966 -0.150366,0.088 -0.346125,0.088 z m 0,-0.19008 q 0.20427,0 0.31208,-0.13334 0.110646,-0.13619 0.110646,-0.39436 0,-0.2525 -0.110646,-0.38868 -0.110647,-0.13902 -0.31208,-0.13902 -0.201434,0 -0.31208,0.13902 -0.110646,0.13618 -0.110646,0.38868 0,0.25534 0.107809,0.39152 0.110646,0.13618 0.314917,0.13618 z"
         style="fill:#000000;stroke:#000000;stroke-width:0.10583334"
         id="path965" />
      <path
         d="m 74.959709,181.83347 h 0.229804 L 74.676,183.21513 h -0.221293 l -0.388682,-1.06958 -0.391518,1.06958 h -0.218456 l -0.513513,-1.38166 h 0.238315 l 0.391519,1.1093 0.400029,-1.1093 h 0.198597 l 0.394355,1.1093 z"
         style="fill:#000000;stroke:#000000;stroke-width:0.10583334"
         id="path967" />
      <path
         d="m 76.613555,182.55977 h -1.010004 q 0.01135,0.24115 0.130506,0.36598 0.119158,0.122 0.337614,0.122 0.241152,0 0.442585,-0.16456 l 0.0766,0.16739 q -0.09079,0.0851 -0.232641,0.13618 -0.141855,0.0482 -0.289384,0.0482 -0.323428,0 -0.510676,-0.19008 -0.184411,-0.19009 -0.184411,-0.52486 0,-0.21278 0.08228,-0.3745 0.08228,-0.16455 0.229804,-0.25534 0.150366,-0.0908 0.340451,-0.0908 0.275198,0 0.431238,0.18157 0.15604,0.17874 0.15604,0.49365 z m -0.584441,-0.58161 q -0.181574,0 -0.29222,0.11349 -0.107809,0.11348 -0.127669,0.32059 h 0.802896 q -0.0057,-0.20995 -0.104972,-0.32059 -0.0993,-0.11349 -0.278035,-0.11349 z"
         style="fill:#000000;stroke:#000000;stroke-width:0.10583334"
         id="path969" />
      <path
         d="m 77.735179,181.99802 -0.150366,0.0142 q -0.212781,0.0199 -0.309242,0.13334 -0.09362,0.11348 -0.09362,0.28087 v 0.78871 h -0.229804 v -1.38166 h 0.22413 v 0.24115 q 0.11632,-0.24115 0.456771,-0.26952 l 0.08228,-0.006 z"
         style="fill:#000000;stroke:#000000;stroke-width:0.10583334"
         id="path971" />
      <path
         d="m 77.959842,181.83347 h 0.289383 v 0.29222 h -0.289383 z m 0,1.09228 h 0.289383 v 0.28938 h -0.289383 z"
         style="fill:#000000;stroke:#000000;stroke-width:0.10583334"
         id="path973" />
      <path
         d="m 80.202074,183.01937 h 0.439749 v 0.19576 h -1.112139 v -0.19576 h 0.439748 v -1.515 l -0.351799,0.22129 -0.107809,-0.17873 0.524862,-0.33194 h 0.167388 z"
         style="fill:#000000;stroke:#000000;stroke-width:0.10583334"
         id="path975" />
      <path
         d="m 81.798247,181.96114 q 0.190085,0 0.329102,0.0794 0.141855,0.0794 0.218456,0.22413 0.0766,0.14185 0.0766,0.3291 0,0.19009 -0.08511,0.33478 -0.08228,0.14469 -0.235479,0.22696 -0.153203,0.0794 -0.357473,0.0794 -0.181574,0 -0.36031,-0.0653 -0.1759,-0.0681 -0.297895,-0.18157 l 0.08795,-0.17874 q 0.278035,0.2298 0.570255,0.2298 0.209945,0 0.329102,-0.11915 0.119158,-0.11916 0.119158,-0.32343 0,-0.1986 -0.119158,-0.32059 -0.11632,-0.122 -0.312079,-0.122 -0.286547,0 -0.456772,0.23264 h -0.161714 v -1.17171 h 1.200089 v 0.19292 h -0.970285 v 0.71211 q 0.07944,-0.0766 0.187248,-0.11632 0.110647,-0.0426 0.238316,-0.0426 z"
         style="fill:#000000;stroke:#000000;stroke-width:0.10583334"
         id="path977" />
      <path
         d="m 83.427933,183.39954 -0.190085,-0.0624 0.723458,-2.25832 0.190085,0.0624 z"
         style="fill:#000000;stroke:#000000;stroke-width:0.10583334"
         id="path979" />
      <path
         d="m 85.076325,181.21499 h 0.791548 q 0.314917,0 0.487979,0.1532 0.1759,0.1532 0.1759,0.43407 0,0.28087 -0.1759,0.43691 -0.175899,0.15604 -0.487979,0.15604 h -0.558907 v 0.81992 h -0.232641 z m 0.768851,0.9873 q 0.456772,0 0.456772,-0.40003 0,-0.39435 -0.456772,-0.39435 h -0.53621 v 0.79438 z"
         style="fill:#000000;stroke:#000000;stroke-width:0.10583334"
         id="path981" />
      <path
         d="m 87.399373,181.79943 q 0.263849,0 0.391518,0.13618 0.130506,0.13334 0.130506,0.40854 v 0.87098 h -0.22413 v -0.23547 q -0.0539,0.12199 -0.164551,0.19008 -0.110646,0.0653 -0.255338,0.0653 -0.133343,0 -0.246827,-0.0539 -0.110646,-0.0539 -0.175899,-0.15037 -0.06525,-0.0965 -0.06525,-0.21278 0,-0.15604 0.07944,-0.24115 0.07944,-0.0879 0.261012,-0.12483 0.181574,-0.0397 0.505002,-0.0397 h 0.06242 v -0.0936 q 0,-0.17306 -0.07093,-0.24966 -0.07093,-0.0794 -0.229804,-0.0794 -0.238316,0 -0.473794,0.14753 l -0.0766,-0.16739 q 0.10781,-0.0766 0.258176,-0.12199 0.153202,-0.0482 0.295057,-0.0482 z m -0.09079,1.25399 q 0.170225,0 0.278035,-0.11348 0.110646,-0.11632 0.110646,-0.2979 v -0.0823 H 87.6462 q -0.249664,0 -0.38017,0.0227 -0.130506,0.0199 -0.187248,0.0709 -0.05391,0.0482 -0.05391,0.14469 0,0.11065 0.07944,0.18441 0.08228,0.0709 0.20427,0.0709 z"
         style="fill:#000000;stroke:#000000;stroke-width:0.10583334"
         id="path983" />
      <path
         d="m 88.807408,183.23499 q -0.348962,0 -0.553232,-0.17873 l 0.0766,-0.17023 q 0.110647,0.088 0.22413,0.12767 0.116321,0.0369 0.261013,0.0369 0.153202,0 0.232641,-0.0511 0.08228,-0.0539 0.08228,-0.1532 0,-0.0823 -0.05391,-0.1305 -0.05391,-0.0482 -0.178737,-0.0766 l -0.232641,-0.0539 q -0.1759,-0.0397 -0.269524,-0.13618 -0.09362,-0.0965 -0.09362,-0.23832 0,-0.18441 0.144692,-0.29789 0.144691,-0.11348 0.385844,-0.11348 0.144692,0 0.275198,0.0482 0.130506,0.0454 0.218456,0.13334 l -0.0766,0.16739 q -0.190085,-0.16172 -0.417052,-0.16172 -0.144691,0 -0.226967,0.0567 -0.07944,0.0539 -0.07944,0.1532 0,0.0823 0.04823,0.13334 0.05107,0.0482 0.161714,0.0738 l 0.235478,0.0567 q 0.192923,0.0454 0.286547,0.13902 0.09362,0.0908 0.09362,0.23831 0,0.18157 -0.147528,0.28938 -0.144692,0.10781 -0.397193,0.10781 z"
         style="fill:#000000;stroke:#000000;stroke-width:0.10583334"
         id="path985" />
      <path
         d="m 90.170541,183.23499 q -0.348962,0 -0.553233,-0.17873 l 0.0766,-0.17023 q 0.110646,0.088 0.22413,0.12767 0.11632,0.0369 0.261012,0.0369 0.153203,0 0.232641,-0.0511 0.08228,-0.0539 0.08228,-0.1532 0,-0.0823 -0.05391,-0.1305 -0.0539,-0.0482 -0.178736,-0.0766 l -0.232642,-0.0539 q -0.175899,-0.0397 -0.269523,-0.13618 -0.09362,-0.0965 -0.09362,-0.23832 0,-0.18441 0.144691,-0.29789 0.144692,-0.11348 0.385845,-0.11348 0.144691,0 0.275197,0.0482 0.130506,0.0454 0.218456,0.13334 l -0.0766,0.16739 q -0.190085,-0.16172 -0.417052,-0.16172 -0.144692,0 -0.226968,0.0567 -0.07944,0.0539 -0.07944,0.1532 0,0.0823 0.04823,0.13334 0.05107,0.0482 0.161715,0.0738 l 0.235478,0.0567 q 0.192922,0.0454 0.286546,0.13902 0.09362,0.0908 0.09362,0.23831 0,0.18157 -0.147529,0.28938 -0.144691,0.10781 -0.397192,0.10781 z"
         style="fill:#000000;stroke:#000000;stroke-width:0.10583334"
         id="path987" />
      <path
         d="m 92.22309,182.55977 h -1.010004 q 0.01135,0.24115 0.130506,0.36598 0.119158,0.122 0.337614,0.122 0.241152,0 0.442586,-0.16456 l 0.0766,0.16739 q -0.09079,0.0851 -0.232641,0.13618 -0.141855,0.0482 -0.289383,0.0482 -0.323429,0 -0.510676,-0.19008 -0.184411,-0.19009 -0.184411,-0.52486 0,-0.21278 0.08227,-0.3745 0.08228,-0.16455 0.229805,-0.25534 0.150365,-0.0908 0.34045,-0.0908 0.275198,0 0.431238,0.18157 0.15604,0.17874 0.15604,0.49365 z m -0.584441,-0.58161 q -0.181573,0 -0.29222,0.11349 -0.107809,0.11348 -0.127669,0.32059 h 0.802896 q -0.0057,-0.20995 -0.104972,-0.32059 -0.0993,-0.11349 -0.278035,-0.11349 z"
         style="fill:#000000;stroke:#000000;stroke-width:0.10583334"
         id="path989" />
      <path
         d="m 93.029798,183.23499 q -0.348962,0 -0.553233,-0.17873 l 0.0766,-0.17023 q 0.110647,0.088 0.224131,0.12767 0.11632,0.0369 0.261012,0.0369 0.153203,0 0.232641,-0.0511 0.08228,-0.0539 0.08228,-0.1532 0,-0.0823 -0.05391,-0.1305 -0.05391,-0.0482 -0.178737,-0.0766 l -0.232641,-0.0539 q -0.1759,-0.0397 -0.269523,-0.13618 -0.09362,-0.0965 -0.09362,-0.23832 0,-0.18441 0.144691,-0.29789 0.144692,-0.11348 0.385844,-0.11348 0.144692,0 0.275198,0.0482 0.130506,0.0454 0.218456,0.13334 l -0.0766,0.16739 q -0.190085,-0.16172 -0.417052,-0.16172 -0.144691,0 -0.226967,0.0567 -0.07944,0.0539 -0.07944,0.1532 0,0.0823 0.04823,0.13334 0.05107,0.0482 0.161714,0.0738 l 0.235479,0.0567 q 0.192922,0.0454 0.286546,0.13902 0.09362,0.0908 0.09362,0.23831 0,0.18157 -0.147529,0.28938 -0.144692,0.10781 -0.397192,0.10781 z"
         style="fill:#000000;stroke:#000000;stroke-width:0.10583334"
         id="path991" />
      <path
         d="m 93.890765,181.83347 h 0.289383 v 0.29222 h -0.289383 z m 0,1.09228 h 0.289383 v 0.28938 h -0.289383 z"
         style="fill:#000000;stroke:#000000;stroke-width:0.10583334"
         id="path993" />
      <path
         d="m 96.132997,183.01937 h 0.439749 v 0.19576 h -1.112139 v -0.19576 h 0.439749 v -1.515 l -0.351799,0.22129 -0.10781,-0.17873 0.524862,-0.33194 h 0.167388 z"
         style="fill:#000000;stroke:#000000;stroke-width:0.10583334"
         id="path995" />
    </g>
    <g
       aria-label="Speed: 200 / Power: 25 / Passes: 1"
       transform="scale(0.89357153,1.1191046)"
       style="font-style:normal;font-variant:normal;font-weight:normal;font-stretch:normal;font-size:2.83708954px;line-height:1.25;font-family:'Nunito Sans';-inkscape-font-specification:'Nunito Sans';text-align:start;text-anchor:start;fill:#000000;fill-opacity:1;stroke:#000000;stroke-width:0.10583334;stroke-miterlimit:4;stroke-dasharray:none;stroke-opacity:1"
       id="text2759-4">
      <path
         d="m 53.617259,198.5537 q -0.46812,0 -0.748991,-0.2525 l 0.09079,-0.17874 q 0.147529,0.12484 0.300732,0.17874 0.15604,0.0539 0.36031,0.0539 0.241153,0 0.371659,-0.0936 0.130506,-0.0936 0.130506,-0.26385 0,-0.0993 -0.06242,-0.16171 -0.06242,-0.0624 -0.164551,-0.0993 -0.102135,-0.0369 -0.275198,-0.0766 -0.232641,-0.0539 -0.383007,-0.11348 -0.147528,-0.0596 -0.241152,-0.17023 -0.09079,-0.11065 -0.09079,-0.28938 0,-0.17023 0.08795,-0.30073 0.09079,-0.13335 0.255339,-0.20427 0.167388,-0.0738 0.385844,-0.0738 0.207107,0 0.385844,0.0652 0.181574,0.0653 0.306406,0.18725 l -0.08795,0.17874 q -0.141855,-0.122 -0.289383,-0.1759 -0.144692,-0.0567 -0.314917,-0.0567 -0.232642,0 -0.365985,0.0993 -0.130506,0.0965 -0.130506,0.27236 0,0.15036 0.116321,0.22696 0.11632,0.0766 0.351799,0.13051 0.258175,0.0624 0.405704,0.11632 0.147528,0.0511 0.243989,0.15604 0.0993,0.10497 0.0993,0.28087 0,0.17023 -0.09079,0.2979 -0.08795,0.12767 -0.255338,0.19859 -0.167389,0.0681 -0.391519,0.0681 z"
         style="fill:#000000;stroke:#000000;stroke-width:0.10583334"
         id="path998" />
      <path
         d="m 55.393809,197.1153 q 0.181574,0 0.320591,0.0908 0.139018,0.0908 0.215619,0.25533 0.0766,0.16172 0.0766,0.37734 0,0.21561 -0.0766,0.37733 -0.0766,0.15888 -0.215619,0.24683 -0.13618,0.088 -0.320591,0.088 -0.161714,0 -0.283709,-0.0709 -0.119158,-0.0709 -0.181574,-0.20144 v 0.76318 h -0.229804 v -1.89234 h 0.229804 v 0.23832 q 0.06242,-0.13051 0.181574,-0.20143 0.121995,-0.0709 0.283709,-0.0709 z m -0.04539,1.24548 q 0.201433,0 0.31208,-0.13618 0.110646,-0.13618 0.110646,-0.38584 0,-0.24967 -0.110646,-0.38869 -0.110647,-0.14185 -0.31208,-0.14185 -0.201434,0 -0.31208,0.13618 -0.10781,0.13618 -0.10781,0.38868 0,0.2525 0.10781,0.39152 0.110646,0.13618 0.31208,0.13618 z"
         style="fill:#000000;stroke:#000000;stroke-width:0.10583334"
         id="path1000" />
      <path
         d="m 57.507529,197.87564 h -1.010003 q 0.01135,0.24115 0.130506,0.36598 0.119157,0.122 0.337613,0.122 0.241153,0 0.442586,-0.16455 l 0.0766,0.16738 q -0.09079,0.0851 -0.232642,0.13618 -0.141854,0.0482 -0.289383,0.0482 -0.323428,0 -0.510676,-0.19009 -0.184411,-0.19008 -0.184411,-0.52486 0,-0.21278 0.08228,-0.3745 0.08227,-0.16455 0.229804,-0.25533 0.150366,-0.0908 0.340451,-0.0908 0.275198,0 0.431237,0.18157 0.15604,0.17874 0.15604,0.49366 z m -0.58444,-0.58161 q -0.181574,0 -0.29222,0.11349 -0.10781,0.11348 -0.127669,0.32059 h 0.802896 q -0.0057,-0.20995 -0.104972,-0.32059 -0.0993,-0.11349 -0.278035,-0.11349 z"
         style="fill:#000000;stroke:#000000;stroke-width:0.10583334"
         id="path1002" />
      <path
         d="m 59.003651,197.87564 h -1.010004 q 0.01135,0.24115 0.130506,0.36598 0.119158,0.122 0.337614,0.122 0.241152,0 0.442586,-0.16455 l 0.0766,0.16738 q -0.09079,0.0851 -0.232641,0.13618 -0.141855,0.0482 -0.289383,0.0482 -0.323429,0 -0.510677,-0.19009 -0.18441,-0.19008 -0.18441,-0.52486 0,-0.21278 0.08227,-0.3745 0.08228,-0.16455 0.229805,-0.25533 0.150365,-0.0908 0.34045,-0.0908 0.275198,0 0.431238,0.18157 0.15604,0.17874 0.15604,0.49366 z m -0.584441,-0.58161 q -0.181573,0 -0.29222,0.11349 -0.107809,0.11348 -0.127669,0.32059 h 0.802896 q -0.0057,-0.20995 -0.104972,-0.32059 -0.0993,-0.11349 -0.278035,-0.11349 z"
         style="fill:#000000;stroke:#000000;stroke-width:0.10583334"
         id="path1004" />
      <path
         d="m 60.567862,196.53086 v 2.00015 h -0.229804 v -0.25251 q -0.06242,0.13051 -0.184411,0.20144 -0.119157,0.0709 -0.280872,0.0709 -0.181573,0 -0.320591,-0.0908 -0.139017,-0.0908 -0.215619,-0.2525 -0.0766,-0.16455 -0.0766,-0.38017 0,-0.21278 0.0766,-0.3745 0.0766,-0.16171 0.215619,-0.24966 0.139018,-0.088 0.320591,-0.088 0.161715,0 0.280872,0.0709 0.121995,0.0709 0.184411,0.20143 v -0.8568 z m -0.649693,1.82992 q 0.201433,0 0.309243,-0.13618 0.110646,-0.13902 0.110646,-0.39152 0,-0.2525 -0.110646,-0.38868 -0.10781,-0.13618 -0.309243,-0.13618 -0.201434,0 -0.314917,0.13618 -0.110647,0.13618 -0.110647,0.38301 0,0.2525 0.110647,0.39435 0.113483,0.13902 0.314917,0.13902 z"
         style="fill:#000000;stroke:#000000;stroke-width:0.10583334"
         id="path1006" />
      <path
         d="m 60.95947,197.14934 h 0.289383 v 0.29222 H 60.95947 Z m 0,1.09228 h 0.289383 v 0.28939 H 60.95947 Z"
         style="fill:#000000;stroke:#000000;stroke-width:0.10583334"
         id="path1008" />
      <path
         d="m 63.68968,198.33525 v 0.19576 h -1.288038 v -0.1759 l 0.700761,-0.77169 q 0.141854,-0.15888 0.20427,-0.28371 0.06525,-0.12767 0.06525,-0.25534 0,-0.16455 -0.09646,-0.2525 -0.09646,-0.0879 -0.27236,-0.0879 -0.289383,0 -0.567418,0.2298 l -0.08795,-0.17873 q 0.119158,-0.11349 0.297894,-0.17874 0.181574,-0.0681 0.363148,-0.0681 0.275198,0 0.434075,0.14186 0.161714,0.14185 0.161714,0.383 0,0.17307 -0.07944,0.33194 -0.0766,0.15888 -0.255338,0.35464 l -0.567418,0.61565 z"
         style="fill:#000000;stroke:#000000;stroke-width:0.10583334"
         id="path1010" />
      <path
         d="m 64.712762,198.5537 q -0.343288,0 -0.522024,-0.26101 -0.178737,-0.26101 -0.178737,-0.76034 0,-0.50216 0.178737,-0.76318 0.178736,-0.26101 0.522024,-0.26101 0.343288,0 0.522025,0.26101 0.178736,0.25818 0.178736,0.76034 0,0.50217 -0.178736,0.76318 -0.178737,0.26101 -0.522025,0.26101 z m 0,-0.19576 q 0.238316,0 0.351799,-0.20143 0.113484,-0.20143 0.113484,-0.627 0,-0.4284 -0.113484,-0.62416 -0.110646,-0.19859 -0.351799,-0.19859 -0.238315,0 -0.351799,0.19859 -0.113484,0.1986 -0.113484,0.62416 0,0.42557 0.113484,0.627 0.113484,0.20143 0.351799,0.20143 z"
         style="fill:#000000;stroke:#000000;stroke-width:0.10583334"
         id="path1012" />
      <path
         d="m 66.413907,198.5537 q -0.343288,0 -0.522024,-0.26101 -0.178737,-0.26101 -0.178737,-0.76034 0,-0.50216 0.178737,-0.76318 0.178736,-0.26101 0.522024,-0.26101 0.343288,0 0.522025,0.26101 0.178736,0.25818 0.178736,0.76034 0,0.50217 -0.178736,0.76318 -0.178737,0.26101 -0.522025,0.26101 z m 0,-0.19576 q 0.238316,0 0.351799,-0.20143 0.113484,-0.20143 0.113484,-0.627 0,-0.4284 -0.113484,-0.62416 -0.110646,-0.19859 -0.351799,-0.19859 -0.238315,0 -0.351799,0.19859 -0.113483,0.1986 -0.113483,0.62416 0,0.42557 0.113483,0.627 0.113484,0.20143 0.351799,0.20143 z"
         style="fill:#000000;stroke:#000000;stroke-width:0.10583334"
         id="path1014" />
      <path
         d="m 68.128706,198.71542 -0.190085,-0.0624 0.723458,-2.25832 0.190085,0.0624 z"
         style="fill:#000000;stroke:#000000;stroke-width:0.10583334"
         id="path1016" />
      <path
         d="m 69.7771,196.53086 h 0.791548 q 0.314917,0 0.48798,0.1532 0.175899,0.1532 0.175899,0.43408 0,0.28087 -0.175899,0.43691 -0.1759,0.15604 -0.48798,0.15604 h -0.558906 v 0.81992 H 69.7771 Z m 0.768851,0.9873 q 0.456772,0 0.456772,-0.40002 0,-0.39436 -0.456772,-0.39436 h -0.536209 v 0.79438 z"
         style="fill:#000000;stroke:#000000;stroke-width:0.10583334"
         id="path1018" />
      <path
         d="m 72.100411,198.55087 q -0.195759,0 -0.346125,-0.088 -0.147529,-0.088 -0.229804,-0.24967 -0.07944,-0.16455 -0.07944,-0.38017 0,-0.21562 0.07944,-0.37733 0.08227,-0.16455 0.229804,-0.2525 0.150366,-0.088 0.346125,-0.088 0.195759,0 0.346125,0.088 0.150366,0.088 0.229804,0.2525 0.08228,0.16171 0.08228,0.37733 0,0.21562 -0.08228,0.38017 -0.07944,0.16172 -0.229804,0.24967 -0.150366,0.088 -0.346125,0.088 z m 0,-0.19009 q 0.20427,0 0.31208,-0.13334 0.110646,-0.13618 0.110646,-0.39436 0,-0.2525 -0.110646,-0.38868 -0.110647,-0.13902 -0.31208,-0.13902 -0.201434,0 -0.31208,0.13902 -0.110646,0.13618 -0.110646,0.38868 0,0.25534 0.107809,0.39152 0.110646,0.13618 0.314917,0.13618 z"
         style="fill:#000000;stroke:#000000;stroke-width:0.10583334"
         id="path1020" />
      <path
         d="m 74.959709,197.14934 h 0.229804 L 74.676,198.53101 h -0.221293 l -0.388682,-1.06959 -0.391518,1.06959 h -0.218456 l -0.513513,-1.38167 h 0.238315 l 0.391519,1.10931 0.400029,-1.10931 h 0.198597 l 0.394355,1.10931 z"
         style="fill:#000000;stroke:#000000;stroke-width:0.10583334"
         id="path1022" />
      <path
         d="m 76.613555,197.87564 h -1.010004 q 0.01135,0.24115 0.130506,0.36598 0.119158,0.122 0.337614,0.122 0.241152,0 0.442585,-0.16455 l 0.0766,0.16738 q -0.09079,0.0851 -0.232641,0.13618 -0.141855,0.0482 -0.289384,0.0482 -0.323428,0 -0.510676,-0.19009 -0.184411,-0.19008 -0.184411,-0.52486 0,-0.21278 0.08228,-0.3745 0.08228,-0.16455 0.229804,-0.25533 0.150366,-0.0908 0.340451,-0.0908 0.275198,0 0.431238,0.18157 0.15604,0.17874 0.15604,0.49366 z m -0.584441,-0.58161 q -0.181574,0 -0.29222,0.11349 -0.107809,0.11348 -0.127669,0.32059 h 0.802896 q -0.0057,-0.20995 -0.104972,-0.32059 -0.0993,-0.11349 -0.278035,-0.11349 z"
         style="fill:#000000;stroke:#000000;stroke-width:0.10583334"
         id="path1024" />
      <path
         d="m 77.735179,197.31389 -0.150366,0.0142 q -0.212781,0.0199 -0.309242,0.13334 -0.09362,0.11349 -0.09362,0.28087 v 0.78872 h -0.229804 v -1.38167 h 0.22413 v 0.24116 q 0.11632,-0.24116 0.456771,-0.26953 l 0.08228,-0.006 z"
         style="fill:#000000;stroke:#000000;stroke-width:0.10583334"
         id="path1026" />
      <path
         d="m 77.959842,197.14934 h 0.289383 v 0.29222 h -0.289383 z m 0,1.09228 h 0.289383 v 0.28939 h -0.289383 z"
         style="fill:#000000;stroke:#000000;stroke-width:0.10583334"
         id="path1028" />
      <path
         d="m 80.690053,198.33525 v 0.19576 h -1.288038 v -0.1759 l 0.700761,-0.77169 q 0.141854,-0.15888 0.20427,-0.28371 0.06525,-0.12767 0.06525,-0.25534 0,-0.16455 -0.09646,-0.2525 -0.09646,-0.0879 -0.27236,-0.0879 -0.289384,0 -0.567418,0.2298 l -0.08795,-0.17873 q 0.119158,-0.11349 0.297894,-0.17874 0.181574,-0.0681 0.363148,-0.0681 0.275197,0 0.434074,0.14186 0.161715,0.14185 0.161715,0.383 0,0.17307 -0.07944,0.33194 -0.0766,0.15888 -0.255338,0.35464 l -0.567418,0.61565 z"
         style="fill:#000000;stroke:#000000;stroke-width:0.10583334"
         id="path1030" />
      <path
         d="m 81.798247,197.27701 q 0.190085,0 0.329102,0.0794 0.141855,0.0794 0.218456,0.22413 0.0766,0.14186 0.0766,0.3291 0,0.19009 -0.08511,0.33478 -0.08228,0.14469 -0.235479,0.22697 -0.153203,0.0794 -0.357473,0.0794 -0.181574,0 -0.36031,-0.0653 -0.1759,-0.0681 -0.297895,-0.18157 l 0.08795,-0.17874 q 0.278035,0.22981 0.570255,0.22981 0.209945,0 0.329102,-0.11916 0.119158,-0.11916 0.119158,-0.32343 0,-0.1986 -0.119158,-0.32059 -0.11632,-0.122 -0.312079,-0.122 -0.286547,0 -0.456772,0.23265 h -0.161714 v -1.17172 h 1.200089 v 0.19292 h -0.970285 v 0.71211 q 0.07944,-0.0766 0.187248,-0.11632 0.110647,-0.0426 0.238316,-0.0426 z"
         style="fill:#000000;stroke:#000000;stroke-width:0.10583334"
         id="path1032" />
      <path
         d="m 83.427933,198.71542 -0.190085,-0.0624 0.723458,-2.25832 0.190085,0.0624 z"
         style="fill:#000000;stroke:#000000;stroke-width:0.10583334"
         id="path1034" />
      <path
         d="m 85.076325,196.53086 h 0.791548 q 0.314917,0 0.487979,0.1532 0.1759,0.1532 0.1759,0.43408 0,0.28087 -0.1759,0.43691 -0.175899,0.15604 -0.487979,0.15604 h -0.558907 v 0.81992 h -0.232641 z m 0.768851,0.9873 q 0.456772,0 0.456772,-0.40002 0,-0.39436 -0.456772,-0.39436 h -0.53621 v 0.79438 z"
         style="fill:#000000;stroke:#000000;stroke-width:0.10583334"
         id="path1036" />
      <path
         d="m 87.399373,197.1153 q 0.263849,0 0.391518,0.13618 0.130506,0.13334 0.130506,0.40854 v 0.87099 h -0.22413 v -0.23548 q -0.0539,0.12199 -0.164551,0.19008 -0.110646,0.0653 -0.255338,0.0653 -0.133343,0 -0.246827,-0.0539 -0.110646,-0.0539 -0.175899,-0.15036 -0.06525,-0.0965 -0.06525,-0.21279 0,-0.15604 0.07944,-0.24115 0.07944,-0.088 0.261012,-0.12483 0.181574,-0.0397 0.505002,-0.0397 h 0.06242 v -0.0936 q 0,-0.17307 -0.07093,-0.24967 -0.07093,-0.0794 -0.229804,-0.0794 -0.238316,0 -0.473794,0.14753 l -0.0766,-0.16739 q 0.10781,-0.0766 0.258176,-0.12199 0.153202,-0.0482 0.295057,-0.0482 z m -0.09079,1.25399 q 0.170225,0 0.278035,-0.11348 0.110646,-0.11632 0.110646,-0.2979 v -0.0823 H 87.6462 q -0.249664,0 -0.38017,0.0227 -0.130506,0.0199 -0.187248,0.0709 -0.05391,0.0482 -0.05391,0.14469 0,0.11065 0.07944,0.18441 0.08228,0.0709 0.20427,0.0709 z"
         style="fill:#000000;stroke:#000000;stroke-width:0.10583334"
         id="path1038" />
      <path
         d="m 88.807408,198.55087 q -0.348962,0 -0.553232,-0.17874 l 0.0766,-0.17023 q 0.110647,0.088 0.22413,0.12767 0.116321,0.0369 0.261013,0.0369 0.153202,0 0.232641,-0.0511 0.08228,-0.0539 0.08228,-0.15321 0,-0.0823 -0.05391,-0.1305 -0.05391,-0.0482 -0.178737,-0.0766 l -0.232641,-0.0539 q -0.1759,-0.0397 -0.269524,-0.13618 -0.09362,-0.0965 -0.09362,-0.23831 0,-0.18441 0.144692,-0.2979 0.144691,-0.11348 0.385844,-0.11348 0.144692,0 0.275198,0.0482 0.130506,0.0454 0.218456,0.13334 l -0.0766,0.16739 q -0.190085,-0.16171 -0.417052,-0.16171 -0.144691,0 -0.226967,0.0567 -0.07944,0.0539 -0.07944,0.1532 0,0.0823 0.04823,0.13334 0.05107,0.0482 0.161714,0.0738 l 0.235478,0.0567 q 0.192923,0.0454 0.286547,0.13902 0.09362,0.0908 0.09362,0.23831 0,0.18158 -0.147528,0.28939 -0.144692,0.10781 -0.397193,0.10781 z"
         style="fill:#000000;stroke:#000000;stroke-width:0.10583334"
         id="path1040" />
      <path
         d="m 90.170541,198.55087 q -0.348962,0 -0.553233,-0.17874 l 0.0766,-0.17023 q 0.110646,0.088 0.22413,0.12767 0.11632,0.0369 0.261012,0.0369 0.153203,0 0.232641,-0.0511 0.08228,-0.0539 0.08228,-0.15321 0,-0.0823 -0.05391,-0.1305 -0.0539,-0.0482 -0.178736,-0.0766 l -0.232642,-0.0539 q -0.175899,-0.0397 -0.269523,-0.13618 -0.09362,-0.0965 -0.09362,-0.23831 0,-0.18441 0.144691,-0.2979 0.144692,-0.11348 0.385845,-0.11348 0.144691,0 0.275197,0.0482 0.130506,0.0454 0.218456,0.13334 l -0.0766,0.16739 q -0.190085,-0.16171 -0.417052,-0.16171 -0.144692,0 -0.226968,0.0567 -0.07944,0.0539 -0.07944,0.1532 0,0.0823 0.04823,0.13334 0.05107,0.0482 0.161715,0.0738 l 0.235478,0.0567 q 0.192922,0.0454 0.286546,0.13902 0.09362,0.0908 0.09362,0.23831 0,0.18158 -0.147529,0.28939 -0.144691,0.10781 -0.397192,0.10781 z"
         style="fill:#000000;stroke:#000000;stroke-width:0.10583334"
         id="path1042" />
      <path
         d="m 92.22309,197.87564 h -1.010004 q 0.01135,0.24115 0.130506,0.36598 0.119158,0.122 0.337614,0.122 0.241152,0 0.442586,-0.16455 l 0.0766,0.16738 q -0.09079,0.0851 -0.232641,0.13618 -0.141855,0.0482 -0.289383,0.0482 -0.323429,0 -0.510676,-0.19009 -0.184411,-0.19008 -0.184411,-0.52486 0,-0.21278 0.08227,-0.3745 0.08228,-0.16455 0.229805,-0.25533 0.150365,-0.0908 0.34045,-0.0908 0.275198,0 0.431238,0.18157 0.15604,0.17874 0.15604,0.49366 z m -0.584441,-0.58161 q -0.181573,0 -0.29222,0.11349 -0.107809,0.11348 -0.127669,0.32059 h 0.802896 q -0.0057,-0.20995 -0.104972,-0.32059 -0.0993,-0.11349 -0.278035,-0.11349 z"
         style="fill:#000000;stroke:#000000;stroke-width:0.10583334"
         id="path1044" />
      <path
         d="m 93.029798,198.55087 q -0.348962,0 -0.553233,-0.17874 l 0.0766,-0.17023 q 0.110647,0.088 0.224131,0.12767 0.11632,0.0369 0.261012,0.0369 0.153203,0 0.232641,-0.0511 0.08228,-0.0539 0.08228,-0.15321 0,-0.0823 -0.05391,-0.1305 -0.05391,-0.0482 -0.178737,-0.0766 l -0.232641,-0.0539 q -0.1759,-0.0397 -0.269523,-0.13618 -0.09362,-0.0965 -0.09362,-0.23831 0,-0.18441 0.144691,-0.2979 0.144692,-0.11348 0.385844,-0.11348 0.144692,0 0.275198,0.0482 0.130506,0.0454 0.218456,0.13334 l -0.0766,0.16739 q -0.190085,-0.16171 -0.417052,-0.16171 -0.144691,0 -0.226967,0.0567 -0.07944,0.0539 -0.07944,0.1532 0,0.0823 0.04823,0.13334 0.05107,0.0482 0.161714,0.0738 l 0.235479,0.0567 q 0.192922,0.0454 0.286546,0.13902 0.09362,0.0908 0.09362,0.23831 0,0.18158 -0.147529,0.28939 -0.144692,0.10781 -0.397192,0.10781 z"
         style="fill:#000000;stroke:#000000;stroke-width:0.10583334"
         id="path1046" />
      <path
         d="m 93.890765,197.14934 h 0.289383 v 0.29222 h -0.289383 z m 0,1.09228 h 0.289383 v 0.28939 h -0.289383 z"
         style="fill:#000000;stroke:#000000;stroke-width:0.10583334"
         id="path1048" />
      <path
         d="m 96.132997,198.33525 h 0.439749 v 0.19576 h -1.112139 v -0.19576 h 0.439749 v -1.51501 l -0.351799,0.22129 -0.10781,-0.17873 0.524862,-0.33194 h 0.167388 z"
         style="fill:#000000;stroke:#000000;stroke-width:0.10583334"
         id="path1050" />
    </g>
    <g
       aria-label="Speed: 180 / Power: 15 / Passes: 1"
       transform="scale(0.89357153,1.1191046)"
       style="font-style:normal;font-variant:normal;font-weight:normal;font-stretch:normal;font-size:2.83708954px;line-height:1.25;font-family:'Nunito Sans';-inkscape-font-specification:'Nunito Sans';text-align:start;text-anchor:start;fill:#000000;fill-opacity:1;stroke:#000000;stroke-width:0.10583334;stroke-miterlimit:4;stroke-dasharray:none;stroke-opacity:1"
       id="text2759-0">
      <path
         d="m 53.617259,213.86957 q -0.46812,0 -0.748991,-0.2525 l 0.09079,-0.17873 q 0.147529,0.12483 0.300732,0.17873 0.15604,0.0539 0.36031,0.0539 0.241153,0 0.371659,-0.0936 0.130506,-0.0936 0.130506,-0.26384 0,-0.0993 -0.06242,-0.16172 -0.06242,-0.0624 -0.164551,-0.0993 -0.102135,-0.0369 -0.275198,-0.0766 -0.232641,-0.0539 -0.383007,-0.11348 -0.147528,-0.0596 -0.241152,-0.17023 -0.09079,-0.11064 -0.09079,-0.28938 0,-0.17023 0.08795,-0.30073 0.09079,-0.13335 0.255339,-0.20427 0.167388,-0.0738 0.385844,-0.0738 0.207107,0 0.385844,0.0653 0.181574,0.0653 0.306406,0.18724 l -0.08795,0.17874 q -0.141855,-0.12199 -0.289383,-0.1759 -0.144692,-0.0567 -0.314917,-0.0567 -0.232642,0 -0.365985,0.0993 -0.130506,0.0965 -0.130506,0.27236 0,0.15036 0.116321,0.22697 0.11632,0.0766 0.351799,0.1305 0.258175,0.0624 0.405704,0.11632 0.147528,0.0511 0.243989,0.15604 0.0993,0.10497 0.0993,0.28087 0,0.17023 -0.09079,0.2979 -0.08795,0.12767 -0.255338,0.19859 -0.167389,0.0681 -0.391519,0.0681 z"
         style="fill:#000000;stroke:#000000;stroke-width:0.10583334"
         id="path1053" />
      <path
         d="m 55.393809,212.43117 q 0.181574,0 0.320591,0.0908 0.139018,0.0908 0.215619,0.25534 0.0766,0.16171 0.0766,0.37733 0,0.21562 -0.0766,0.37733 -0.0766,0.15888 -0.215619,0.24683 -0.13618,0.088 -0.320591,0.088 -0.161714,0 -0.283709,-0.0709 -0.119158,-0.0709 -0.181574,-0.20143 v 0.76317 h -0.229804 v -1.89233 h 0.229804 v 0.23831 q 0.06242,-0.13051 0.181574,-0.20143 0.121995,-0.0709 0.283709,-0.0709 z m -0.04539,1.24548 q 0.201433,0 0.31208,-0.13618 0.110646,-0.13618 0.110646,-0.38584 0,-0.24967 -0.110646,-0.38868 -0.110647,-0.14186 -0.31208,-0.14186 -0.201434,0 -0.31208,0.13618 -0.10781,0.13618 -0.10781,0.38868 0,0.2525 0.10781,0.39152 0.110646,0.13618 0.31208,0.13618 z"
         style="fill:#000000;stroke:#000000;stroke-width:0.10583334"
         id="path1055" />
      <path
         d="m 57.507529,213.19151 h -1.010003 q 0.01135,0.24115 0.130506,0.36598 0.119157,0.122 0.337613,0.122 0.241153,0 0.442586,-0.16455 l 0.0766,0.16739 q -0.09079,0.0851 -0.232642,0.13618 -0.141854,0.0482 -0.289383,0.0482 -0.323428,0 -0.510676,-0.19009 -0.184411,-0.19008 -0.184411,-0.52486 0,-0.21278 0.08228,-0.37449 0.08227,-0.16456 0.229804,-0.25534 0.150366,-0.0908 0.340451,-0.0908 0.275198,0 0.431237,0.18157 0.15604,0.17874 0.15604,0.49366 z m -0.58444,-0.5816 q -0.181574,0 -0.29222,0.11348 -0.10781,0.11348 -0.127669,0.32059 h 0.802896 q -0.0057,-0.20994 -0.104972,-0.32059 -0.0993,-0.11348 -0.278035,-0.11348 z"
         style="fill:#000000;stroke:#000000;stroke-width:0.10583334"
         id="path1057" />
      <path
         d="m 59.003651,213.19151 h -1.010004 q 0.01135,0.24115 0.130506,0.36598 0.119158,0.122 0.337614,0.122 0.241152,0 0.442586,-0.16455 l 0.0766,0.16739 q -0.09079,0.0851 -0.232641,0.13618 -0.141855,0.0482 -0.289383,0.0482 -0.323429,0 -0.510677,-0.19009 -0.18441,-0.19008 -0.18441,-0.52486 0,-0.21278 0.08227,-0.37449 0.08228,-0.16456 0.229805,-0.25534 0.150365,-0.0908 0.34045,-0.0908 0.275198,0 0.431238,0.18157 0.15604,0.17874 0.15604,0.49366 z m -0.584441,-0.5816 q -0.181573,0 -0.29222,0.11348 -0.107809,0.11348 -0.127669,0.32059 h 0.802896 q -0.0057,-0.20994 -0.104972,-0.32059 -0.0993,-0.11348 -0.278035,-0.11348 z"
         style="fill:#000000;stroke:#000000;stroke-width:0.10583334"
         id="path1059" />
      <path
         d="m 60.567862,211.84673 v 2.00015 h -0.229804 v -0.2525 q -0.06242,0.1305 -0.184411,0.20143 -0.119157,0.0709 -0.280872,0.0709 -0.181573,0 -0.320591,-0.0908 -0.139017,-0.0908 -0.215619,-0.2525 -0.0766,-0.16455 -0.0766,-0.38017 0,-0.21278 0.0766,-0.3745 0.0766,-0.16171 0.215619,-0.24966 0.139018,-0.0879 0.320591,-0.0879 0.161715,0 0.280872,0.0709 0.121995,0.0709 0.184411,0.20143 v -0.8568 z m -0.649693,1.82992 q 0.201433,0 0.309243,-0.13618 0.110646,-0.13902 0.110646,-0.39152 0,-0.2525 -0.110646,-0.38868 -0.10781,-0.13618 -0.309243,-0.13618 -0.201434,0 -0.314917,0.13618 -0.110647,0.13618 -0.110647,0.38301 0,0.2525 0.110647,0.39436 0.113483,0.13901 0.314917,0.13901 z"
         style="fill:#000000;stroke:#000000;stroke-width:0.10583334"
         id="path1061" />
      <path
         d="m 60.95947,212.46522 h 0.289383 v 0.29222 H 60.95947 Z m 0,1.09227 h 0.289383 v 0.28939 H 60.95947 Z"
         style="fill:#000000;stroke:#000000;stroke-width:0.10583334"
         id="path1063" />
      <path
         d="m 63.201701,213.65112 h 0.439749 v 0.19576 h -1.112139 v -0.19576 h 0.439749 v -1.51501 l -0.3518,0.2213 -0.107809,-0.17874 0.524862,-0.33194 h 0.167388 z"
         style="fill:#000000;stroke:#000000;stroke-width:0.10583334"
         id="path1065" />
      <path
         d="m 65.058887,212.81985 q 0.1759,0.0539 0.272361,0.18441 0.0993,0.13051 0.0993,0.31208 0,0.25818 -0.187248,0.40571 -0.187248,0.14469 -0.530536,0.14469 -0.343288,0 -0.530536,-0.14469 -0.187248,-0.14753 -0.187248,-0.40571 0,-0.18441 0.0993,-0.31491 0.0993,-0.13051 0.275197,-0.18158 -0.150366,-0.0567 -0.238315,-0.17874 -0.08795,-0.12199 -0.08795,-0.28654 0,-0.24399 0.175899,-0.38585 0.178737,-0.14469 0.493654,-0.14469 0.314917,0 0.490817,0.14469 0.178736,0.14186 0.178736,0.38585 0,0.16455 -0.08795,0.28938 -0.08795,0.122 -0.235478,0.1759 z m -0.785874,-0.44826 q 0,0.1759 0.110647,0.26952 0.113483,0.0936 0.329102,0.0936 0.215619,0 0.326265,-0.0936 0.113484,-0.0936 0.113484,-0.26952 0,-0.16739 -0.113484,-0.26101 -0.110646,-0.0936 -0.326265,-0.0936 -0.215619,0 -0.329102,0.0936 -0.110647,0.0936 -0.110647,0.26101 z m 0.439749,1.30223 q 0.487979,0 0.487979,-0.37166 0,-0.37166 -0.487979,-0.37166 -0.487979,0 -0.487979,0.37166 0,0.37166 0.487979,0.37166 z"
         style="fill:#000000;stroke:#000000;stroke-width:0.10583334"
         id="path1067" />
      <path
         d="m 66.413907,213.86957 q -0.343288,0 -0.522024,-0.26101 -0.178737,-0.26101 -0.178737,-0.76034 0,-0.50216 0.178737,-0.76317 0.178736,-0.26102 0.522024,-0.26102 0.343288,0 0.522025,0.26102 0.178736,0.25817 0.178736,0.76034 0,0.50216 -0.178736,0.76317 -0.178737,0.26101 -0.522025,0.26101 z m 0,-0.19575 q 0.238316,0 0.351799,-0.20144 0.113484,-0.20143 0.113484,-0.62699 0,-0.42841 -0.113484,-0.62416 -0.110646,-0.1986 -0.351799,-0.1986 -0.238315,0 -0.351799,0.1986 -0.113483,0.19859 -0.113483,0.62416 0,0.42556 0.113483,0.62699 0.113484,0.20144 0.351799,0.20144 z"
         style="fill:#000000;stroke:#000000;stroke-width:0.10583334"
         id="path1069" />
      <path
         d="m 68.128706,214.03129 -0.190085,-0.0624 0.723458,-2.25832 0.190085,0.0624 z"
         style="fill:#000000;stroke:#000000;stroke-width:0.10583334"
         id="path1071" />
      <path
         d="m 69.7771,211.84673 h 0.791548 q 0.314917,0 0.48798,0.1532 0.175899,0.15321 0.175899,0.43408 0,0.28087 -0.175899,0.43691 -0.1759,0.15604 -0.48798,0.15604 h -0.558906 v 0.81992 H 69.7771 Z m 0.768851,0.98731 q 0.456772,0 0.456772,-0.40003 0,-0.39436 -0.456772,-0.39436 h -0.536209 v 0.79439 z"
         style="fill:#000000;stroke:#000000;stroke-width:0.10583334"
         id="path1073" />
      <path
         d="m 72.100411,213.86674 q -0.195759,0 -0.346125,-0.088 -0.147529,-0.0879 -0.229804,-0.24967 -0.07944,-0.16455 -0.07944,-0.38017 0,-0.21561 0.07944,-0.37733 0.08227,-0.16455 0.229804,-0.2525 0.150366,-0.0879 0.346125,-0.0879 0.195759,0 0.346125,0.0879 0.150366,0.088 0.229804,0.2525 0.08228,0.16172 0.08228,0.37733 0,0.21562 -0.08228,0.38017 -0.07944,0.16172 -0.229804,0.24967 -0.150366,0.088 -0.346125,0.088 z m 0,-0.19009 q 0.20427,0 0.31208,-0.13334 0.110646,-0.13618 0.110646,-0.39436 0,-0.2525 -0.110646,-0.38868 -0.110647,-0.13901 -0.31208,-0.13901 -0.201434,0 -0.31208,0.13901 -0.110646,0.13618 -0.110646,0.38868 0,0.25534 0.107809,0.39152 0.110646,0.13618 0.314917,0.13618 z"
         style="fill:#000000;stroke:#000000;stroke-width:0.10583334"
         id="path1075" />
      <path
         d="m 74.959709,212.46522 h 0.229804 L 74.676,213.84688 h -0.221293 l -0.388682,-1.06958 -0.391518,1.06958 h -0.218456 l -0.513513,-1.38166 h 0.238315 l 0.391519,1.1093 0.400029,-1.1093 h 0.198597 l 0.394355,1.1093 z"
         style="fill:#000000;stroke:#000000;stroke-width:0.10583334"
         id="path1077" />
      <path
         d="m 76.613555,213.19151 h -1.010004 q 0.01135,0.24115 0.130506,0.36598 0.119158,0.122 0.337614,0.122 0.241152,0 0.442585,-0.16455 l 0.0766,0.16739 q -0.09079,0.0851 -0.232641,0.13618 -0.141855,0.0482 -0.289384,0.0482 -0.323428,0 -0.510676,-0.19009 -0.184411,-0.19008 -0.184411,-0.52486 0,-0.21278 0.08228,-0.37449 0.08228,-0.16456 0.229804,-0.25534 0.150366,-0.0908 0.340451,-0.0908 0.275198,0 0.431238,0.18157 0.15604,0.17874 0.15604,0.49366 z m -0.584441,-0.5816 q -0.181574,0 -0.29222,0.11348 -0.107809,0.11348 -0.127669,0.32059 h 0.802896 q -0.0057,-0.20994 -0.104972,-0.32059 -0.0993,-0.11348 -0.278035,-0.11348 z"
         style="fill:#000000;stroke:#000000;stroke-width:0.10583334"
         id="path1079" />
      <path
         d="m 77.735179,212.62977 -0.150366,0.0142 q -0.212781,0.0199 -0.309242,0.13335 -0.09362,0.11348 -0.09362,0.28087 v 0.78871 h -0.229804 v -1.38166 h 0.22413 v 0.24115 q 0.11632,-0.24115 0.456771,-0.26953 l 0.08228,-0.006 z"
         style="fill:#000000;stroke:#000000;stroke-width:0.10583334"
         id="path1081" />
      <path
         d="m 77.959842,212.46522 h 0.289383 v 0.29222 h -0.289383 z m 0,1.09227 h 0.289383 v 0.28939 h -0.289383 z"
         style="fill:#000000;stroke:#000000;stroke-width:0.10583334"
         id="path1083" />
      <path
         d="m 80.202074,213.65112 h 0.439749 v 0.19576 h -1.112139 v -0.19576 h 0.439748 v -1.51501 l -0.351799,0.2213 -0.107809,-0.17874 0.524862,-0.33194 h 0.167388 z"
         style="fill:#000000;stroke:#000000;stroke-width:0.10583334"
         id="path1085" />
      <path
         d="m 81.798247,212.59288 q 0.190085,0 0.329102,0.0794 0.141855,0.0794 0.218456,0.22413 0.0766,0.14186 0.0766,0.32911 0,0.19008 -0.08511,0.33477 -0.08228,0.14469 -0.235479,0.22697 -0.153203,0.0794 -0.357473,0.0794 -0.181574,0 -0.36031,-0.0653 -0.1759,-0.0681 -0.297895,-0.18157 l 0.08795,-0.17874 q 0.278035,0.22981 0.570255,0.22981 0.209945,0 0.329102,-0.11916 0.119158,-0.11916 0.119158,-0.32343 0,-0.19859 -0.119158,-0.32059 -0.11632,-0.12199 -0.312079,-0.12199 -0.286547,0 -0.456772,0.23264 h -0.161714 v -1.17172 h 1.200089 v 0.19292 h -0.970285 v 0.71211 q 0.07944,-0.0766 0.187248,-0.11632 0.110647,-0.0426 0.238316,-0.0426 z"
         style="fill:#000000;stroke:#000000;stroke-width:0.10583334"
         id="path1087" />
      <path
         d="m 83.427933,214.03129 -0.190085,-0.0624 0.723458,-2.25832 0.190085,0.0624 z"
         style="fill:#000000;stroke:#000000;stroke-width:0.10583334"
         id="path1089" />
      <path
         d="m 85.076325,211.84673 h 0.791548 q 0.314917,0 0.487979,0.1532 0.1759,0.15321 0.1759,0.43408 0,0.28087 -0.1759,0.43691 -0.175899,0.15604 -0.487979,0.15604 h -0.558907 v 0.81992 h -0.232641 z m 0.768851,0.98731 q 0.456772,0 0.456772,-0.40003 0,-0.39436 -0.456772,-0.39436 h -0.53621 v 0.79439 z"
         style="fill:#000000;stroke:#000000;stroke-width:0.10583334"
         id="path1091" />
      <path
         d="m 87.399373,212.43117 q 0.263849,0 0.391518,0.13618 0.130506,0.13334 0.130506,0.40854 v 0.87099 h -0.22413 v -0.23548 q -0.0539,0.12199 -0.164551,0.19008 -0.110646,0.0653 -0.255338,0.0653 -0.133343,0 -0.246827,-0.0539 -0.110646,-0.0539 -0.175899,-0.15036 -0.06525,-0.0965 -0.06525,-0.21278 0,-0.15604 0.07944,-0.24116 0.07944,-0.088 0.261012,-0.12483 0.181574,-0.0397 0.505002,-0.0397 h 0.06242 v -0.0936 q 0,-0.17306 -0.07093,-0.24967 -0.07093,-0.0794 -0.229804,-0.0794 -0.238316,0 -0.473794,0.14752 l -0.0766,-0.16738 q 0.10781,-0.0766 0.258176,-0.122 0.153202,-0.0482 0.295057,-0.0482 z m -0.09079,1.25399 q 0.170225,0 0.278035,-0.11348 0.110646,-0.11632 0.110646,-0.29789 v -0.0823 H 87.6462 q -0.249664,0 -0.38017,0.0227 -0.130506,0.0199 -0.187248,0.0709 -0.05391,0.0482 -0.05391,0.1447 0,0.11064 0.07944,0.18441 0.08228,0.0709 0.20427,0.0709 z"
         style="fill:#000000;stroke:#000000;stroke-width:0.10583334"
         id="path1093" />
      <path
         d="m 88.807408,213.86674 q -0.348962,0 -0.553232,-0.17874 l 0.0766,-0.17022 q 0.110647,0.088 0.22413,0.12766 0.116321,0.0369 0.261013,0.0369 0.153202,0 0.232641,-0.0511 0.08228,-0.0539 0.08228,-0.1532 0,-0.0823 -0.05391,-0.13051 -0.05391,-0.0482 -0.178737,-0.0766 l -0.232641,-0.0539 q -0.1759,-0.0397 -0.269524,-0.13618 -0.09362,-0.0965 -0.09362,-0.23831 0,-0.18441 0.144692,-0.2979 0.144691,-0.11348 0.385844,-0.11348 0.144692,0 0.275198,0.0482 0.130506,0.0454 0.218456,0.13334 l -0.0766,0.16739 q -0.190085,-0.16171 -0.417052,-0.16171 -0.144691,0 -0.226967,0.0567 -0.07944,0.0539 -0.07944,0.1532 0,0.0823 0.04823,0.13335 0.05107,0.0482 0.161714,0.0738 l 0.235478,0.0567 q 0.192923,0.0454 0.286547,0.13902 0.09362,0.0908 0.09362,0.23832 0,0.18157 -0.147528,0.28938 -0.144692,0.10781 -0.397193,0.10781 z"
         style="fill:#000000;stroke:#000000;stroke-width:0.10583334"
         id="path1095" />
      <path
         d="m 90.170541,213.86674 q -0.348962,0 -0.553233,-0.17874 l 0.0766,-0.17022 q 0.110646,0.088 0.22413,0.12766 0.11632,0.0369 0.261012,0.0369 0.153203,0 0.232641,-0.0511 0.08228,-0.0539 0.08228,-0.1532 0,-0.0823 -0.05391,-0.13051 -0.0539,-0.0482 -0.178736,-0.0766 l -0.232642,-0.0539 q -0.175899,-0.0397 -0.269523,-0.13618 -0.09362,-0.0965 -0.09362,-0.23831 0,-0.18441 0.144691,-0.2979 0.144692,-0.11348 0.385845,-0.11348 0.144691,0 0.275197,0.0482 0.130506,0.0454 0.218456,0.13334 l -0.0766,0.16739 q -0.190085,-0.16171 -0.417052,-0.16171 -0.144692,0 -0.226968,0.0567 -0.07944,0.0539 -0.07944,0.1532 0,0.0823 0.04823,0.13335 0.05107,0.0482 0.161715,0.0738 l 0.235478,0.0567 q 0.192922,0.0454 0.286546,0.13902 0.09362,0.0908 0.09362,0.23832 0,0.18157 -0.147529,0.28938 -0.144691,0.10781 -0.397192,0.10781 z"
         style="fill:#000000;stroke:#000000;stroke-width:0.10583334"
         id="path1097" />
      <path
         d="m 92.22309,213.19151 h -1.010004 q 0.01135,0.24115 0.130506,0.36598 0.119158,0.122 0.337614,0.122 0.241152,0 0.442586,-0.16455 l 0.0766,0.16739 q -0.09079,0.0851 -0.232641,0.13618 -0.141855,0.0482 -0.289383,0.0482 -0.323429,0 -0.510676,-0.19009 -0.184411,-0.19008 -0.184411,-0.52486 0,-0.21278 0.08227,-0.37449 0.08228,-0.16456 0.229805,-0.25534 0.150365,-0.0908 0.34045,-0.0908 0.275198,0 0.431238,0.18157 0.15604,0.17874 0.15604,0.49366 z m -0.584441,-0.5816 q -0.181573,0 -0.29222,0.11348 -0.107809,0.11348 -0.127669,0.32059 h 0.802896 q -0.0057,-0.20994 -0.104972,-0.32059 -0.0993,-0.11348 -0.278035,-0.11348 z"
         style="fill:#000000;stroke:#000000;stroke-width:0.10583334"
         id="path1099" />
      <path
         d="m 93.029798,213.86674 q -0.348962,0 -0.553233,-0.17874 l 0.0766,-0.17022 q 0.110647,0.088 0.224131,0.12766 0.11632,0.0369 0.261012,0.0369 0.153203,0 0.232641,-0.0511 0.08228,-0.0539 0.08228,-0.1532 0,-0.0823 -0.05391,-0.13051 -0.05391,-0.0482 -0.178737,-0.0766 l -0.232641,-0.0539 q -0.1759,-0.0397 -0.269523,-0.13618 -0.09362,-0.0965 -0.09362,-0.23831 0,-0.18441 0.144691,-0.2979 0.144692,-0.11348 0.385844,-0.11348 0.144692,0 0.275198,0.0482 0.130506,0.0454 0.218456,0.13334 l -0.0766,0.16739 q -0.190085,-0.16171 -0.417052,-0.16171 -0.144691,0 -0.226967,0.0567 -0.07944,0.0539 -0.07944,0.1532 0,0.0823 0.04823,0.13335 0.05107,0.0482 0.161714,0.0738 l 0.235479,0.0567 q 0.192922,0.0454 0.286546,0.13902 0.09362,0.0908 0.09362,0.23832 0,0.18157 -0.147529,0.28938 -0.144692,0.10781 -0.397192,0.10781 z"
         style="fill:#000000;stroke:#000000;stroke-width:0.10583334"
         id="path1101" />
      <path
         d="m 93.890765,212.46522 h 0.289383 v 0.29222 h -0.289383 z m 0,1.09227 h 0.289383 v 0.28939 h -0.289383 z"
         style="fill:#000000;stroke:#000000;stroke-width:0.10583334"
         id="path1103" />
      <path
         d="m 96.132997,213.65112 h 0.439749 v 0.19576 h -1.112139 v -0.19576 h 0.439749 v -1.51501 l -0.351799,0.2213 -0.10781,-0.17874 0.524862,-0.33194 h 0.167388 z"
         style="fill:#000000;stroke:#000000;stroke-width:0.10583334"
         id="path1105" />
    </g>
    <g
       aria-label="Speed: 180 / Power: 25 / Passes: 1"
       transform="scale(0.89357153,1.1191046)"
       style="font-style:normal;font-variant:normal;font-weight:normal;font-stretch:normal;font-size:2.83708954px;line-height:1.25;font-family:'Nunito Sans';-inkscape-font-specification:'Nunito Sans';text-align:start;text-anchor:start;fill:#000000;fill-opacity:1;stroke:#000000;stroke-width:0.10583334;stroke-miterlimit:4;stroke-dasharray:none;stroke-opacity:1"
       id="text2759-03">
      <path
         d="m 53.617259,229.18545 q -0.46812,0 -0.748991,-0.2525 l 0.09079,-0.17874 q 0.147529,0.12483 0.300732,0.17874 0.15604,0.0539 0.36031,0.0539 0.241153,0 0.371659,-0.0936 0.130506,-0.0936 0.130506,-0.26385 0,-0.0993 -0.06242,-0.16172 -0.06242,-0.0624 -0.164551,-0.0993 -0.102135,-0.0369 -0.275198,-0.0766 -0.232641,-0.0539 -0.383007,-0.11348 -0.147528,-0.0596 -0.241152,-0.17023 -0.09079,-0.11064 -0.09079,-0.28938 0,-0.17022 0.08795,-0.30073 0.09079,-0.13334 0.255339,-0.20427 0.167388,-0.0738 0.385844,-0.0738 0.207107,0 0.385844,0.0653 0.181574,0.0652 0.306406,0.18725 l -0.08795,0.17873 q -0.141855,-0.12199 -0.289383,-0.1759 -0.144692,-0.0567 -0.314917,-0.0567 -0.232642,0 -0.365985,0.0993 -0.130506,0.0965 -0.130506,0.27236 0,0.15037 0.116321,0.22697 0.11632,0.0766 0.351799,0.1305 0.258175,0.0624 0.405704,0.11632 0.147528,0.0511 0.243989,0.15604 0.0993,0.10498 0.0993,0.28088 0,0.17022 -0.09079,0.29789 -0.08795,0.12767 -0.255338,0.1986 -0.167389,0.0681 -0.391519,0.0681 z"
         style="fill:#000000;stroke:#000000;stroke-width:0.10583334"
         id="path1108" />
      <path
         d="m 55.393809,227.74704 q 0.181574,0 0.320591,0.0908 0.139018,0.0908 0.215619,0.25534 0.0766,0.16171 0.0766,0.37733 0,0.21562 -0.0766,0.37733 -0.0766,0.15888 -0.215619,0.24683 -0.13618,0.088 -0.320591,0.088 -0.161714,0 -0.283709,-0.0709 -0.119158,-0.0709 -0.181574,-0.20143 v 0.76318 h -0.229804 v -1.89234 h 0.229804 v 0.23831 q 0.06242,-0.1305 0.181574,-0.20143 0.121995,-0.0709 0.283709,-0.0709 z m -0.04539,1.24548 q 0.201433,0 0.31208,-0.13618 0.110646,-0.13618 0.110646,-0.38584 0,-0.24966 -0.110646,-0.38868 -0.110647,-0.14186 -0.31208,-0.14186 -0.201434,0 -0.31208,0.13618 -0.10781,0.13619 -0.10781,0.38869 0,0.2525 0.10781,0.39151 0.110646,0.13618 0.31208,0.13618 z"
         style="fill:#000000;stroke:#000000;stroke-width:0.10583334"
         id="path1110" />
      <path
         d="m 57.507529,228.50738 h -1.010003 q 0.01135,0.24116 0.130506,0.36599 0.119157,0.12199 0.337613,0.12199 0.241153,0 0.442586,-0.16455 l 0.0766,0.16739 q -0.09079,0.0851 -0.232642,0.13618 -0.141854,0.0482 -0.289383,0.0482 -0.323428,0 -0.510676,-0.19009 -0.184411,-0.19008 -0.184411,-0.52486 0,-0.21278 0.08228,-0.37449 0.08227,-0.16455 0.229804,-0.25534 0.150366,-0.0908 0.340451,-0.0908 0.275198,0 0.431237,0.18158 0.15604,0.17873 0.15604,0.49365 z m -0.58444,-0.5816 q -0.181574,0 -0.29222,0.11348 -0.10781,0.11349 -0.127669,0.32059 h 0.802896 q -0.0057,-0.20994 -0.104972,-0.32059 -0.0993,-0.11348 -0.278035,-0.11348 z"
         style="fill:#000000;stroke:#000000;stroke-width:0.10583334"
         id="path1112" />
      <path
         d="m 59.003651,228.50738 h -1.010004 q 0.01135,0.24116 0.130506,0.36599 0.119158,0.12199 0.337614,0.12199 0.241152,0 0.442586,-0.16455 l 0.0766,0.16739 q -0.09079,0.0851 -0.232641,0.13618 -0.141855,0.0482 -0.289383,0.0482 -0.323429,0 -0.510677,-0.19009 -0.18441,-0.19008 -0.18441,-0.52486 0,-0.21278 0.08227,-0.37449 0.08228,-0.16455 0.229805,-0.25534 0.150365,-0.0908 0.34045,-0.0908 0.275198,0 0.431238,0.18158 0.15604,0.17873 0.15604,0.49365 z m -0.584441,-0.5816 q -0.181573,0 -0.29222,0.11348 -0.107809,0.11349 -0.127669,0.32059 h 0.802896 q -0.0057,-0.20994 -0.104972,-0.32059 -0.0993,-0.11348 -0.278035,-0.11348 z"
         style="fill:#000000;stroke:#000000;stroke-width:0.10583334"
         id="path1114" />
      <path
         d="m 60.567862,227.1626 v 2.00015 h -0.229804 v -0.2525 q -0.06242,0.13051 -0.184411,0.20143 -0.119157,0.0709 -0.280872,0.0709 -0.181573,0 -0.320591,-0.0908 -0.139017,-0.0908 -0.215619,-0.2525 -0.0766,-0.16455 -0.0766,-0.38017 0,-0.21278 0.0766,-0.37449 0.0766,-0.16172 0.215619,-0.24967 0.139018,-0.088 0.320591,-0.088 0.161715,0 0.280872,0.0709 0.121995,0.0709 0.184411,0.20143 v -0.8568 z m -0.649693,1.82992 q 0.201433,0 0.309243,-0.13618 0.110646,-0.13901 0.110646,-0.39151 0,-0.2525 -0.110646,-0.38869 -0.10781,-0.13618 -0.309243,-0.13618 -0.201434,0 -0.314917,0.13618 -0.110647,0.13619 -0.110647,0.38301 0,0.2525 0.110647,0.39436 0.113483,0.13901 0.314917,0.13901 z"
         style="fill:#000000;stroke:#000000;stroke-width:0.10583334"
         id="path1116" />
      <path
         d="m 60.95947,227.78109 h 0.289383 v 0.29222 H 60.95947 Z m 0,1.09228 h 0.289383 v 0.28938 H 60.95947 Z"
         style="fill:#000000;stroke:#000000;stroke-width:0.10583334"
         id="path1118" />
      <path
         d="m 63.201701,228.96699 h 0.439749 v 0.19576 h -1.112139 v -0.19576 h 0.439749 v -1.515 l -0.3518,0.22129 -0.107809,-0.17874 0.524862,-0.33194 h 0.167388 z"
         style="fill:#000000;stroke:#000000;stroke-width:0.10583334"
         id="path1120" />
      <path
         d="m 65.058887,228.13572 q 0.1759,0.0539 0.272361,0.18441 0.0993,0.13051 0.0993,0.31208 0,0.25818 -0.187248,0.40571 -0.187248,0.14469 -0.530536,0.14469 -0.343288,0 -0.530536,-0.14469 -0.187248,-0.14753 -0.187248,-0.40571 0,-0.18441 0.0993,-0.31491 0.0993,-0.13051 0.275197,-0.18158 -0.150366,-0.0567 -0.238315,-0.17873 -0.08795,-0.122 -0.08795,-0.28655 0,-0.24399 0.175899,-0.38584 0.178737,-0.14469 0.493654,-0.14469 0.314917,0 0.490817,0.14469 0.178736,0.14185 0.178736,0.38584 0,0.16455 -0.08795,0.28938 -0.08795,0.122 -0.235478,0.1759 z m -0.785874,-0.44826 q 0,0.1759 0.110647,0.26953 0.113483,0.0936 0.329102,0.0936 0.215619,0 0.326265,-0.0936 0.113484,-0.0936 0.113484,-0.26953 0,-0.16738 -0.113484,-0.26101 -0.110646,-0.0936 -0.326265,-0.0936 -0.215619,0 -0.329102,0.0936 -0.110647,0.0936 -0.110647,0.26101 z m 0.439749,1.30223 q 0.487979,0 0.487979,-0.37166 0,-0.37166 -0.487979,-0.37166 -0.487979,0 -0.487979,0.37166 0,0.37166 0.487979,0.37166 z"
         style="fill:#000000;stroke:#000000;stroke-width:0.10583334"
         id="path1122" />
      <path
         d="m 66.413907,229.18545 q -0.343288,0 -0.522024,-0.26102 -0.178737,-0.26101 -0.178737,-0.76034 0,-0.50216 0.178737,-0.76317 0.178736,-0.26101 0.522024,-0.26101 0.343288,0 0.522025,0.26101 0.178736,0.25817 0.178736,0.76034 0,0.50216 -0.178736,0.76317 -0.178737,0.26102 -0.522025,0.26102 z m 0,-0.19576 q 0.238316,0 0.351799,-0.20144 0.113484,-0.20143 0.113484,-0.62699 0,-0.4284 -0.113484,-0.62416 -0.110646,-0.1986 -0.351799,-0.1986 -0.238315,0 -0.351799,0.1986 -0.113483,0.19859 -0.113483,0.62416 0,0.42556 0.113483,0.62699 0.113484,0.20144 0.351799,0.20144 z"
         style="fill:#000000;stroke:#000000;stroke-width:0.10583334"
         id="path1124" />
      <path
         d="m 68.128706,229.34716 -0.190085,-0.0624 0.723458,-2.25833 0.190085,0.0624 z"
         style="fill:#000000;stroke:#000000;stroke-width:0.10583334"
         id="path1126" />
      <path
         d="m 69.7771,227.1626 h 0.791548 q 0.314917,0 0.48798,0.1532 0.175899,0.15321 0.175899,0.43408 0,0.28087 -0.175899,0.43691 -0.1759,0.15604 -0.48798,0.15604 h -0.558906 v 0.81992 H 69.7771 Z m 0.768851,0.98731 q 0.456772,0 0.456772,-0.40003 0,-0.39436 -0.456772,-0.39436 h -0.536209 v 0.79439 z"
         style="fill:#000000;stroke:#000000;stroke-width:0.10583334"
         id="path1128" />
      <path
         d="m 72.100411,229.18261 q -0.195759,0 -0.346125,-0.088 -0.147529,-0.088 -0.229804,-0.24966 -0.07944,-0.16455 -0.07944,-0.38017 0,-0.21562 0.07944,-0.37734 0.08227,-0.16455 0.229804,-0.2525 0.150366,-0.088 0.346125,-0.088 0.195759,0 0.346125,0.088 0.150366,0.088 0.229804,0.2525 0.08228,0.16172 0.08228,0.37734 0,0.21562 -0.08228,0.38017 -0.07944,0.16171 -0.229804,0.24966 -0.150366,0.088 -0.346125,0.088 z m 0,-0.19009 q 0.20427,0 0.31208,-0.13334 0.110646,-0.13618 0.110646,-0.39435 0,-0.2525 -0.110646,-0.38869 -0.110647,-0.13901 -0.31208,-0.13901 -0.201434,0 -0.31208,0.13901 -0.110646,0.13619 -0.110646,0.38869 0,0.25533 0.107809,0.39151 0.110646,0.13618 0.314917,0.13618 z"
         style="fill:#000000;stroke:#000000;stroke-width:0.10583334"
         id="path1130" />
      <path
         d="m 74.959709,227.78109 h 0.229804 L 74.676,229.16275 h -0.221293 l -0.388682,-1.06958 -0.391518,1.06958 h -0.218456 l -0.513513,-1.38166 h 0.238315 l 0.391519,1.1093 0.400029,-1.1093 h 0.198597 l 0.394355,1.1093 z"
         style="fill:#000000;stroke:#000000;stroke-width:0.10583334"
         id="path1132" />
      <path
         d="m 76.613555,228.50738 h -1.010004 q 0.01135,0.24116 0.130506,0.36599 0.119158,0.12199 0.337614,0.12199 0.241152,0 0.442585,-0.16455 l 0.0766,0.16739 q -0.09079,0.0851 -0.232641,0.13618 -0.141855,0.0482 -0.289384,0.0482 -0.323428,0 -0.510676,-0.19009 -0.184411,-0.19008 -0.184411,-0.52486 0,-0.21278 0.08228,-0.37449 0.08228,-0.16455 0.229804,-0.25534 0.150366,-0.0908 0.340451,-0.0908 0.275198,0 0.431238,0.18158 0.15604,0.17873 0.15604,0.49365 z m -0.584441,-0.5816 q -0.181574,0 -0.29222,0.11348 -0.107809,0.11349 -0.127669,0.32059 h 0.802896 q -0.0057,-0.20994 -0.104972,-0.32059 -0.0993,-0.11348 -0.278035,-0.11348 z"
         style="fill:#000000;stroke:#000000;stroke-width:0.10583334"
         id="path1134" />
      <path
         d="m 77.735179,227.94564 -0.150366,0.0142 q -0.212781,0.0199 -0.309242,0.13335 -0.09362,0.11348 -0.09362,0.28087 v 0.78871 h -0.229804 v -1.38166 h 0.22413 v 0.24115 q 0.11632,-0.24115 0.456771,-0.26952 l 0.08228,-0.006 z"
         style="fill:#000000;stroke:#000000;stroke-width:0.10583334"
         id="path1136" />
      <path
         d="m 77.959842,227.78109 h 0.289383 v 0.29222 h -0.289383 z m 0,1.09228 h 0.289383 v 0.28938 h -0.289383 z"
         style="fill:#000000;stroke:#000000;stroke-width:0.10583334"
         id="path1138" />
      <path
         d="m 80.690053,228.96699 v 0.19576 h -1.288038 v -0.1759 l 0.700761,-0.77169 q 0.141854,-0.15887 0.20427,-0.28371 0.06525,-0.12767 0.06525,-0.25533 0,-0.16456 -0.09646,-0.25251 -0.09646,-0.088 -0.27236,-0.088 -0.289384,0 -0.567418,0.22981 l -0.08795,-0.17874 q 0.119158,-0.11348 0.297894,-0.17873 0.181574,-0.0681 0.363148,-0.0681 0.275197,0 0.434074,0.14185 0.161715,0.14185 0.161715,0.38301 0,0.17306 -0.07944,0.33194 -0.0766,0.15887 -0.255338,0.35463 l -0.567418,0.61565 z"
         style="fill:#000000;stroke:#000000;stroke-width:0.10583334"
         id="path1140" />
      <path
         d="m 81.798247,227.90876 q 0.190085,0 0.329102,0.0794 0.141855,0.0794 0.218456,0.22413 0.0766,0.14185 0.0766,0.3291 0,0.19008 -0.08511,0.33477 -0.08228,0.1447 -0.235479,0.22697 -0.153203,0.0794 -0.357473,0.0794 -0.181574,0 -0.36031,-0.0653 -0.1759,-0.0681 -0.297895,-0.18158 l 0.08795,-0.17873 q 0.278035,0.2298 0.570255,0.2298 0.209945,0 0.329102,-0.11916 0.119158,-0.11915 0.119158,-0.32343 0,-0.19859 -0.119158,-0.32059 -0.11632,-0.12199 -0.312079,-0.12199 -0.286547,0 -0.456772,0.23264 h -0.161714 v -1.17172 h 1.200089 v 0.19292 h -0.970285 v 0.71211 q 0.07944,-0.0766 0.187248,-0.11632 0.110647,-0.0426 0.238316,-0.0426 z"
         style="fill:#000000;stroke:#000000;stroke-width:0.10583334"
         id="path1142" />
      <path
         d="m 83.427933,229.34716 -0.190085,-0.0624 0.723458,-2.25833 0.190085,0.0624 z"
         style="fill:#000000;stroke:#000000;stroke-width:0.10583334"
         id="path1144" />
      <path
         d="m 85.076325,227.1626 h 0.791548 q 0.314917,0 0.487979,0.1532 0.1759,0.15321 0.1759,0.43408 0,0.28087 -0.1759,0.43691 -0.175899,0.15604 -0.487979,0.15604 h -0.558907 v 0.81992 h -0.232641 z m 0.768851,0.98731 q 0.456772,0 0.456772,-0.40003 0,-0.39436 -0.456772,-0.39436 h -0.53621 v 0.79439 z"
         style="fill:#000000;stroke:#000000;stroke-width:0.10583334"
         id="path1146" />
      <path
         d="m 87.399373,227.74704 q 0.263849,0 0.391518,0.13618 0.130506,0.13335 0.130506,0.40854 v 0.87099 h -0.22413 v -0.23548 q -0.0539,0.122 -0.164551,0.19009 -0.110646,0.0653 -0.255338,0.0653 -0.133343,0 -0.246827,-0.0539 -0.110646,-0.0539 -0.175899,-0.15037 -0.06525,-0.0965 -0.06525,-0.21278 0,-0.15604 0.07944,-0.24115 0.07944,-0.0879 0.261012,-0.12484 0.181574,-0.0397 0.505002,-0.0397 h 0.06242 v -0.0936 q 0,-0.17306 -0.07093,-0.24966 -0.07093,-0.0794 -0.229804,-0.0794 -0.238316,0 -0.473794,0.14753 l -0.0766,-0.16739 q 0.10781,-0.0766 0.258176,-0.122 0.153202,-0.0482 0.295057,-0.0482 z m -0.09079,1.254 q 0.170225,0 0.278035,-0.11349 0.110646,-0.11632 0.110646,-0.29789 v -0.0823 H 87.6462 q -0.249664,0 -0.38017,0.0227 -0.130506,0.0199 -0.187248,0.0709 -0.05391,0.0482 -0.05391,0.14469 0,0.11064 0.07944,0.18441 0.08228,0.0709 0.20427,0.0709 z"
         style="fill:#000000;stroke:#000000;stroke-width:0.10583334"
         id="path1148" />
      <path
         d="m 88.807408,229.18261 q -0.348962,0 -0.553232,-0.17874 l 0.0766,-0.17022 q 0.110647,0.088 0.22413,0.12767 0.116321,0.0369 0.261013,0.0369 0.153202,0 0.232641,-0.0511 0.08228,-0.0539 0.08228,-0.1532 0,-0.0823 -0.05391,-0.13051 -0.05391,-0.0482 -0.178737,-0.0766 l -0.232641,-0.0539 q -0.1759,-0.0397 -0.269524,-0.13618 -0.09362,-0.0965 -0.09362,-0.23832 0,-0.18441 0.144692,-0.29789 0.144691,-0.11349 0.385844,-0.11349 0.144692,0 0.275198,0.0482 0.130506,0.0454 0.218456,0.13335 l -0.0766,0.16738 q -0.190085,-0.16171 -0.417052,-0.16171 -0.144691,0 -0.226967,0.0567 -0.07944,0.0539 -0.07944,0.15321 0,0.0823 0.04823,0.13334 0.05107,0.0482 0.161714,0.0738 l 0.235478,0.0567 q 0.192923,0.0454 0.286547,0.13902 0.09362,0.0908 0.09362,0.23832 0,0.18157 -0.147528,0.28938 -0.144692,0.10781 -0.397193,0.10781 z"
         style="fill:#000000;stroke:#000000;stroke-width:0.10583334"
         id="path1150" />
      <path
         d="m 90.170541,229.18261 q -0.348962,0 -0.553233,-0.17874 l 0.0766,-0.17022 q 0.110646,0.088 0.22413,0.12767 0.11632,0.0369 0.261012,0.0369 0.153203,0 0.232641,-0.0511 0.08228,-0.0539 0.08228,-0.1532 0,-0.0823 -0.05391,-0.13051 -0.0539,-0.0482 -0.178736,-0.0766 l -0.232642,-0.0539 q -0.175899,-0.0397 -0.269523,-0.13618 -0.09362,-0.0965 -0.09362,-0.23832 0,-0.18441 0.144691,-0.29789 0.144692,-0.11349 0.385845,-0.11349 0.144691,0 0.275197,0.0482 0.130506,0.0454 0.218456,0.13335 l -0.0766,0.16738 q -0.190085,-0.16171 -0.417052,-0.16171 -0.144692,0 -0.226968,0.0567 -0.07944,0.0539 -0.07944,0.15321 0,0.0823 0.04823,0.13334 0.05107,0.0482 0.161715,0.0738 l 0.235478,0.0567 q 0.192922,0.0454 0.286546,0.13902 0.09362,0.0908 0.09362,0.23832 0,0.18157 -0.147529,0.28938 -0.144691,0.10781 -0.397192,0.10781 z"
         style="fill:#000000;stroke:#000000;stroke-width:0.10583334"
         id="path1152" />
      <path
         d="m 92.22309,228.50738 h -1.010004 q 0.01135,0.24116 0.130506,0.36599 0.119158,0.12199 0.337614,0.12199 0.241152,0 0.442586,-0.16455 l 0.0766,0.16739 q -0.09079,0.0851 -0.232641,0.13618 -0.141855,0.0482 -0.289383,0.0482 -0.323429,0 -0.510676,-0.19009 -0.184411,-0.19008 -0.184411,-0.52486 0,-0.21278 0.08227,-0.37449 0.08228,-0.16455 0.229805,-0.25534 0.150365,-0.0908 0.34045,-0.0908 0.275198,0 0.431238,0.18158 0.15604,0.17873 0.15604,0.49365 z m -0.584441,-0.5816 q -0.181573,0 -0.29222,0.11348 -0.107809,0.11349 -0.127669,0.32059 h 0.802896 q -0.0057,-0.20994 -0.104972,-0.32059 -0.0993,-0.11348 -0.278035,-0.11348 z"
         style="fill:#000000;stroke:#000000;stroke-width:0.10583334"
         id="path1154" />
      <path
         d="m 93.029798,229.18261 q -0.348962,0 -0.553233,-0.17874 l 0.0766,-0.17022 q 0.110647,0.088 0.224131,0.12767 0.11632,0.0369 0.261012,0.0369 0.153203,0 0.232641,-0.0511 0.08228,-0.0539 0.08228,-0.1532 0,-0.0823 -0.05391,-0.13051 -0.05391,-0.0482 -0.178737,-0.0766 l -0.232641,-0.0539 q -0.1759,-0.0397 -0.269523,-0.13618 -0.09362,-0.0965 -0.09362,-0.23832 0,-0.18441 0.144691,-0.29789 0.144692,-0.11349 0.385844,-0.11349 0.144692,0 0.275198,0.0482 0.130506,0.0454 0.218456,0.13335 l -0.0766,0.16738 q -0.190085,-0.16171 -0.417052,-0.16171 -0.144691,0 -0.226967,0.0567 -0.07944,0.0539 -0.07944,0.15321 0,0.0823 0.04823,0.13334 0.05107,0.0482 0.161714,0.0738 l 0.235479,0.0567 q 0.192922,0.0454 0.286546,0.13902 0.09362,0.0908 0.09362,0.23832 0,0.18157 -0.147529,0.28938 -0.144692,0.10781 -0.397192,0.10781 z"
         style="fill:#000000;stroke:#000000;stroke-width:0.10583334"
         id="path1156" />
      <path
         d="m 93.890765,227.78109 h 0.289383 v 0.29222 h -0.289383 z m 0,1.09228 h 0.289383 v 0.28938 h -0.289383 z"
         style="fill:#000000;stroke:#000000;stroke-width:0.10583334"
         id="path1158" />
      <path
         d="m 96.132997,228.96699 h 0.439749 v 0.19576 h -1.112139 v -0.19576 h 0.439749 v -1.515 l -0.351799,0.22129 -0.10781,-0.17874 0.524862,-0.33194 h 0.167388 z"
         style="fill:#000000;stroke:#000000;stroke-width:0.10583334"
         id="path1160" />
    </g>
    <g
       aria-label="Speed: 200 / Power: 15 / Passes: 2"
       transform="scale(0.89357153,1.1191046)"
       style="font-style:normal;font-variant:normal;font-weight:normal;font-stretch:normal;font-size:2.83708954px;line-height:1.25;font-family:'Nunito Sans';-inkscape-font-specification:'Nunito Sans';text-align:start;text-anchor:start;fill:#000000;fill-opacity:1;stroke:#000000;stroke-width:0.10583334;stroke-miterlimit:4;stroke-dasharray:none;stroke-opacity:1"
       id="text2759-8">
      <path
         d="m 53.617259,244.50129 q -0.46812,0 -0.748991,-0.2525 l 0.09079,-0.17874 q 0.147529,0.12483 0.300732,0.17874 0.15604,0.0539 0.36031,0.0539 0.241153,0 0.371659,-0.0936 0.130506,-0.0936 0.130506,-0.26385 0,-0.0993 -0.06242,-0.16172 -0.06242,-0.0624 -0.164551,-0.0993 -0.102135,-0.0369 -0.275198,-0.0766 -0.232641,-0.0539 -0.383007,-0.11349 -0.147528,-0.0596 -0.241152,-0.17022 -0.09079,-0.11065 -0.09079,-0.28939 0,-0.17022 0.08795,-0.30073 0.09079,-0.13334 0.255339,-0.20427 0.167388,-0.0738 0.385844,-0.0738 0.207107,0 0.385844,0.0652 0.181574,0.0653 0.306406,0.18725 l -0.08795,0.17873 q -0.141855,-0.12199 -0.289383,-0.17589 -0.144692,-0.0568 -0.314917,-0.0568 -0.232642,0 -0.365985,0.0993 -0.130506,0.0965 -0.130506,0.27236 0,0.15037 0.116321,0.22697 0.11632,0.0766 0.351799,0.13051 0.258175,0.0624 0.405704,0.11632 0.147528,0.0511 0.243989,0.15604 0.0993,0.10497 0.0993,0.28087 0,0.17022 -0.09079,0.29789 -0.08795,0.12767 -0.255338,0.1986 -0.167389,0.0681 -0.391519,0.0681 z"
         style="fill:#000000;stroke:#000000;stroke-width:0.10583334"
         id="path1163" />
      <path
         d="m 55.393809,243.06288 q 0.181574,0 0.320591,0.0908 0.139018,0.0908 0.215619,0.25534 0.0766,0.16171 0.0766,0.37733 0,0.21562 -0.0766,0.37733 -0.0766,0.15888 -0.215619,0.24683 -0.13618,0.0879 -0.320591,0.0879 -0.161714,0 -0.283709,-0.0709 -0.119158,-0.0709 -0.181574,-0.20143 v 0.76318 h -0.229804 v -1.89234 h 0.229804 v 0.23831 q 0.06242,-0.1305 0.181574,-0.20143 0.121995,-0.0709 0.283709,-0.0709 z m -0.04539,1.24549 q 0.201433,0 0.31208,-0.13618 0.110646,-0.13618 0.110646,-0.38585 0,-0.24966 -0.110646,-0.38868 -0.110647,-0.14185 -0.31208,-0.14185 -0.201434,0 -0.31208,0.13618 -0.10781,0.13618 -0.10781,0.38868 0,0.2525 0.10781,0.39152 0.110646,0.13618 0.31208,0.13618 z"
         style="fill:#000000;stroke:#000000;stroke-width:0.10583334"
         id="path1165" />
      <path
         d="m 57.507529,243.82322 h -1.010003 q 0.01135,0.24116 0.130506,0.36599 0.119157,0.12199 0.337613,0.12199 0.241153,0 0.442586,-0.16455 l 0.0766,0.16739 q -0.09079,0.0851 -0.232642,0.13618 -0.141854,0.0482 -0.289383,0.0482 -0.323428,0 -0.510676,-0.19008 -0.184411,-0.19009 -0.184411,-0.52487 0,-0.21278 0.08228,-0.37449 0.08227,-0.16455 0.229804,-0.25534 0.150366,-0.0908 0.340451,-0.0908 0.275198,0 0.431237,0.18158 0.15604,0.17873 0.15604,0.49365 z m -0.58444,-0.5816 q -0.181574,0 -0.29222,0.11348 -0.10781,0.11349 -0.127669,0.3206 h 0.802896 q -0.0057,-0.20995 -0.104972,-0.3206 -0.0993,-0.11348 -0.278035,-0.11348 z"
         style="fill:#000000;stroke:#000000;stroke-width:0.10583334"
         id="path1167" />
      <path
         d="m 59.003651,243.82322 h -1.010004 q 0.01135,0.24116 0.130506,0.36599 0.119158,0.12199 0.337614,0.12199 0.241152,0 0.442586,-0.16455 l 0.0766,0.16739 q -0.09079,0.0851 -0.232641,0.13618 -0.141855,0.0482 -0.289383,0.0482 -0.323429,0 -0.510677,-0.19008 -0.18441,-0.19009 -0.18441,-0.52487 0,-0.21278 0.08227,-0.37449 0.08228,-0.16455 0.229805,-0.25534 0.150365,-0.0908 0.34045,-0.0908 0.275198,0 0.431238,0.18158 0.15604,0.17873 0.15604,0.49365 z m -0.584441,-0.5816 q -0.181573,0 -0.29222,0.11348 -0.107809,0.11349 -0.127669,0.3206 h 0.802896 q -0.0057,-0.20995 -0.104972,-0.3206 -0.0993,-0.11348 -0.278035,-0.11348 z"
         style="fill:#000000;stroke:#000000;stroke-width:0.10583334"
         id="path1169" />
      <path
         d="m 60.567862,242.47844 v 2.00015 h -0.229804 v -0.2525 q -0.06242,0.13051 -0.184411,0.20143 -0.119157,0.0709 -0.280872,0.0709 -0.181573,0 -0.320591,-0.0908 -0.139017,-0.0908 -0.215619,-0.2525 -0.0766,-0.16455 -0.0766,-0.38017 0,-0.21278 0.0766,-0.37449 0.0766,-0.16172 0.215619,-0.24967 0.139018,-0.088 0.320591,-0.088 0.161715,0 0.280872,0.0709 0.121995,0.0709 0.184411,0.20143 v -0.8568 z m -0.649693,1.82993 q 0.201433,0 0.309243,-0.13618 0.110646,-0.13902 0.110646,-0.39152 0,-0.2525 -0.110646,-0.38868 -0.10781,-0.13618 -0.309243,-0.13618 -0.201434,0 -0.314917,0.13618 -0.110647,0.13618 -0.110647,0.383 0,0.2525 0.110647,0.39436 0.113483,0.13902 0.314917,0.13902 z"
         style="fill:#000000;stroke:#000000;stroke-width:0.10583334"
         id="path1171" />
      <path
         d="m 60.95947,243.09693 h 0.289383 v 0.29222 H 60.95947 Z m 0,1.09228 h 0.289383 v 0.28938 H 60.95947 Z"
         style="fill:#000000;stroke:#000000;stroke-width:0.10583334"
         id="path1173" />
      <path
         d="m 63.68968,244.28283 v 0.19576 h -1.288038 v -0.1759 l 0.700761,-0.77169 q 0.141854,-0.15887 0.20427,-0.2837 0.06525,-0.12767 0.06525,-0.25534 0,-0.16455 -0.09646,-0.2525 -0.09646,-0.088 -0.27236,-0.088 -0.289383,0 -0.567418,0.2298 l -0.08795,-0.17874 q 0.119158,-0.11348 0.297894,-0.17873 0.181574,-0.0681 0.363148,-0.0681 0.275198,0 0.434075,0.14185 0.161714,0.14186 0.161714,0.38301 0,0.17306 -0.07944,0.33194 -0.0766,0.15888 -0.255338,0.35463 l -0.567418,0.61565 z"
         style="fill:#000000;stroke:#000000;stroke-width:0.10583334"
         id="path1175" />
      <path
         d="m 64.712762,244.50129 q -0.343288,0 -0.522024,-0.26101 -0.178737,-0.26102 -0.178737,-0.76034 0,-0.50217 0.178737,-0.76318 0.178736,-0.26101 0.522024,-0.26101 0.343288,0 0.522025,0.26101 0.178736,0.25817 0.178736,0.76034 0,0.50216 -0.178736,0.76318 -0.178737,0.26101 -0.522025,0.26101 z m 0,-0.19576 q 0.238316,0 0.351799,-0.20143 0.113484,-0.20144 0.113484,-0.627 0,-0.4284 -0.113484,-0.62416 -0.110646,-0.1986 -0.351799,-0.1986 -0.238315,0 -0.351799,0.1986 -0.113484,0.1986 -0.113484,0.62416 0,0.42556 0.113484,0.627 0.113484,0.20143 0.351799,0.20143 z"
         style="fill:#000000;stroke:#000000;stroke-width:0.10583334"
         id="path1177" />
      <path
         d="m 66.413907,244.50129 q -0.343288,0 -0.522024,-0.26101 -0.178737,-0.26102 -0.178737,-0.76034 0,-0.50217 0.178737,-0.76318 0.178736,-0.26101 0.522024,-0.26101 0.343288,0 0.522025,0.26101 0.178736,0.25817 0.178736,0.76034 0,0.50216 -0.178736,0.76318 -0.178737,0.26101 -0.522025,0.26101 z m 0,-0.19576 q 0.238316,0 0.351799,-0.20143 0.113484,-0.20144 0.113484,-0.627 0,-0.4284 -0.113484,-0.62416 -0.110646,-0.1986 -0.351799,-0.1986 -0.238315,0 -0.351799,0.1986 -0.113483,0.1986 -0.113483,0.62416 0,0.42556 0.113483,0.627 0.113484,0.20143 0.351799,0.20143 z"
         style="fill:#000000;stroke:#000000;stroke-width:0.10583334"
         id="path1179" />
      <path
         d="m 68.128706,244.663 -0.190085,-0.0624 0.723458,-2.25833 0.190085,0.0624 z"
         style="fill:#000000;stroke:#000000;stroke-width:0.10583334"
         id="path1181" />
      <path
         d="m 69.7771,242.47844 h 0.791548 q 0.314917,0 0.48798,0.15321 0.175899,0.1532 0.175899,0.43407 0,0.28087 -0.175899,0.43691 -0.1759,0.15604 -0.48798,0.15604 h -0.558906 v 0.81992 H 69.7771 Z m 0.768851,0.98731 q 0.456772,0 0.456772,-0.40003 0,-0.39435 -0.456772,-0.39435 h -0.536209 v 0.79438 z"
         style="fill:#000000;stroke:#000000;stroke-width:0.10583334"
         id="path1183" />
      <path
         d="m 72.100411,244.49845 q -0.195759,0 -0.346125,-0.0879 -0.147529,-0.088 -0.229804,-0.24966 -0.07944,-0.16455 -0.07944,-0.38017 0,-0.21562 0.07944,-0.37734 0.08227,-0.16455 0.229804,-0.2525 0.150366,-0.088 0.346125,-0.088 0.195759,0 0.346125,0.088 0.150366,0.0879 0.229804,0.2525 0.08228,0.16172 0.08228,0.37734 0,0.21562 -0.08228,0.38017 -0.07944,0.16171 -0.229804,0.24966 -0.150366,0.0879 -0.346125,0.0879 z m 0,-0.19008 q 0.20427,0 0.31208,-0.13335 0.110646,-0.13618 0.110646,-0.39435 0,-0.2525 -0.110646,-0.38868 -0.110647,-0.13902 -0.31208,-0.13902 -0.201434,0 -0.31208,0.13902 -0.110646,0.13618 -0.110646,0.38868 0,0.25534 0.107809,0.39152 0.110646,0.13618 0.314917,0.13618 z"
         style="fill:#000000;stroke:#000000;stroke-width:0.10583334"
         id="path1185" />
      <path
         d="m 74.959709,243.09693 h 0.229804 L 74.676,244.47859 h -0.221293 l -0.388682,-1.06958 -0.391518,1.06958 h -0.218456 l -0.513513,-1.38166 h 0.238315 l 0.391519,1.1093 0.400029,-1.1093 h 0.198597 l 0.394355,1.1093 z"
         style="fill:#000000;stroke:#000000;stroke-width:0.10583334"
         id="path1187" />
      <path
         d="m 76.613555,243.82322 h -1.010004 q 0.01135,0.24116 0.130506,0.36599 0.119158,0.12199 0.337614,0.12199 0.241152,0 0.442585,-0.16455 l 0.0766,0.16739 q -0.09079,0.0851 -0.232641,0.13618 -0.141855,0.0482 -0.289384,0.0482 -0.323428,0 -0.510676,-0.19008 -0.184411,-0.19009 -0.184411,-0.52487 0,-0.21278 0.08228,-0.37449 0.08228,-0.16455 0.229804,-0.25534 0.150366,-0.0908 0.340451,-0.0908 0.275198,0 0.431238,0.18158 0.15604,0.17873 0.15604,0.49365 z m -0.584441,-0.5816 q -0.181574,0 -0.29222,0.11348 -0.107809,0.11349 -0.127669,0.3206 h 0.802896 q -0.0057,-0.20995 -0.104972,-0.3206 -0.0993,-0.11348 -0.278035,-0.11348 z"
         style="fill:#000000;stroke:#000000;stroke-width:0.10583334"
         id="path1189" />
      <path
         d="m 77.735179,243.26148 -0.150366,0.0142 q -0.212781,0.0199 -0.309242,0.13334 -0.09362,0.11348 -0.09362,0.28087 v 0.78871 h -0.229804 v -1.38166 h 0.22413 v 0.24115 q 0.11632,-0.24115 0.456771,-0.26952 l 0.08228,-0.006 z"
         style="fill:#000000;stroke:#000000;stroke-width:0.10583334"
         id="path1191" />
      <path
         d="m 77.959842,243.09693 h 0.289383 v 0.29222 h -0.289383 z m 0,1.09228 h 0.289383 v 0.28938 h -0.289383 z"
         style="fill:#000000;stroke:#000000;stroke-width:0.10583334"
         id="path1193" />
      <path
         d="m 80.202074,244.28283 h 0.439749 v 0.19576 h -1.112139 v -0.19576 h 0.439748 v -1.515 l -0.351799,0.22129 -0.107809,-0.17874 0.524862,-0.33194 h 0.167388 z"
         style="fill:#000000;stroke:#000000;stroke-width:0.10583334"
         id="path1195" />
      <path
         d="m 81.798247,243.2246 q 0.190085,0 0.329102,0.0794 0.141855,0.0794 0.218456,0.22413 0.0766,0.14185 0.0766,0.3291 0,0.19008 -0.08511,0.33478 -0.08228,0.14469 -0.235479,0.22696 -0.153203,0.0794 -0.357473,0.0794 -0.181574,0 -0.36031,-0.0652 -0.1759,-0.0681 -0.297895,-0.18158 l 0.08795,-0.17873 q 0.278035,0.2298 0.570255,0.2298 0.209945,0 0.329102,-0.11916 0.119158,-0.11915 0.119158,-0.32342 0,-0.1986 -0.119158,-0.32059 -0.11632,-0.122 -0.312079,-0.122 -0.286547,0 -0.456772,0.23264 h -0.161714 v -1.17172 h 1.200089 v 0.19293 h -0.970285 v 0.71211 q 0.07944,-0.0766 0.187248,-0.11633 0.110647,-0.0425 0.238316,-0.0425 z"
         style="fill:#000000;stroke:#000000;stroke-width:0.10583334"
         id="path1197" />
      <path
         d="m 83.427933,244.663 -0.190085,-0.0624 0.723458,-2.25833 0.190085,0.0624 z"
         style="fill:#000000;stroke:#000000;stroke-width:0.10583334"
         id="path1199" />
      <path
         d="m 85.076325,242.47844 h 0.791548 q 0.314917,0 0.487979,0.15321 0.1759,0.1532 0.1759,0.43407 0,0.28087 -0.1759,0.43691 -0.175899,0.15604 -0.487979,0.15604 h -0.558907 v 0.81992 h -0.232641 z m 0.768851,0.98731 q 0.456772,0 0.456772,-0.40003 0,-0.39435 -0.456772,-0.39435 h -0.53621 v 0.79438 z"
         style="fill:#000000;stroke:#000000;stroke-width:0.10583334"
         id="path1201" />
      <path
         d="m 87.399373,243.06288 q 0.263849,0 0.391518,0.13618 0.130506,0.13335 0.130506,0.40855 v 0.87098 h -0.22413 v -0.23548 q -0.0539,0.122 -0.164551,0.19009 -0.110646,0.0652 -0.255338,0.0652 -0.133343,0 -0.246827,-0.0539 -0.110646,-0.0539 -0.175899,-0.15037 -0.06525,-0.0965 -0.06525,-0.21278 0,-0.15604 0.07944,-0.24115 0.07944,-0.088 0.261012,-0.12484 0.181574,-0.0397 0.505002,-0.0397 h 0.06242 v -0.0936 q 0,-0.17306 -0.07093,-0.24966 -0.07093,-0.0794 -0.229804,-0.0794 -0.238316,0 -0.473794,0.14753 l -0.0766,-0.16739 q 0.10781,-0.0766 0.258176,-0.122 0.153202,-0.0482 0.295057,-0.0482 z m -0.09079,1.254 q 0.170225,0 0.278035,-0.11349 0.110646,-0.11632 0.110646,-0.29789 v -0.0823 H 87.6462 q -0.249664,0 -0.38017,0.0227 -0.130506,0.0199 -0.187248,0.0709 -0.05391,0.0482 -0.05391,0.14469 0,0.11065 0.07944,0.18441 0.08228,0.0709 0.20427,0.0709 z"
         style="fill:#000000;stroke:#000000;stroke-width:0.10583334"
         id="path1203" />
      <path
         d="m 88.807408,244.49845 q -0.348962,0 -0.553232,-0.17874 l 0.0766,-0.17022 q 0.110647,0.088 0.22413,0.12767 0.116321,0.0369 0.261013,0.0369 0.153202,0 0.232641,-0.0511 0.08228,-0.0539 0.08228,-0.1532 0,-0.0823 -0.05391,-0.13051 -0.05391,-0.0482 -0.178737,-0.0766 l -0.232641,-0.0539 q -0.1759,-0.0397 -0.269524,-0.13618 -0.09362,-0.0965 -0.09362,-0.23832 0,-0.18441 0.144692,-0.29789 0.144691,-0.11349 0.385844,-0.11349 0.144692,0 0.275198,0.0482 0.130506,0.0454 0.218456,0.13335 l -0.0766,0.16739 q -0.190085,-0.16172 -0.417052,-0.16172 -0.144691,0 -0.226967,0.0567 -0.07944,0.0539 -0.07944,0.15321 0,0.0823 0.04823,0.13334 0.05107,0.0482 0.161714,0.0738 l 0.235478,0.0567 q 0.192923,0.0454 0.286547,0.13901 0.09362,0.0908 0.09362,0.23832 0,0.18157 -0.147528,0.28938 -0.144692,0.10781 -0.397193,0.10781 z"
         style="fill:#000000;stroke:#000000;stroke-width:0.10583334"
         id="path1205" />
      <path
         d="m 90.170541,244.49845 q -0.348962,0 -0.553233,-0.17874 l 0.0766,-0.17022 q 0.110646,0.088 0.22413,0.12767 0.11632,0.0369 0.261012,0.0369 0.153203,0 0.232641,-0.0511 0.08228,-0.0539 0.08228,-0.1532 0,-0.0823 -0.05391,-0.13051 -0.0539,-0.0482 -0.178736,-0.0766 l -0.232642,-0.0539 q -0.175899,-0.0397 -0.269523,-0.13618 -0.09362,-0.0965 -0.09362,-0.23832 0,-0.18441 0.144691,-0.29789 0.144692,-0.11349 0.385845,-0.11349 0.144691,0 0.275197,0.0482 0.130506,0.0454 0.218456,0.13335 l -0.0766,0.16739 q -0.190085,-0.16172 -0.417052,-0.16172 -0.144692,0 -0.226968,0.0567 -0.07944,0.0539 -0.07944,0.15321 0,0.0823 0.04823,0.13334 0.05107,0.0482 0.161715,0.0738 l 0.235478,0.0567 q 0.192922,0.0454 0.286546,0.13901 0.09362,0.0908 0.09362,0.23832 0,0.18157 -0.147529,0.28938 -0.144691,0.10781 -0.397192,0.10781 z"
         style="fill:#000000;stroke:#000000;stroke-width:0.10583334"
         id="path1207" />
      <path
         d="m 92.22309,243.82322 h -1.010004 q 0.01135,0.24116 0.130506,0.36599 0.119158,0.12199 0.337614,0.12199 0.241152,0 0.442586,-0.16455 l 0.0766,0.16739 q -0.09079,0.0851 -0.232641,0.13618 -0.141855,0.0482 -0.289383,0.0482 -0.323429,0 -0.510676,-0.19008 -0.184411,-0.19009 -0.184411,-0.52487 0,-0.21278 0.08227,-0.37449 0.08228,-0.16455 0.229805,-0.25534 0.150365,-0.0908 0.34045,-0.0908 0.275198,0 0.431238,0.18158 0.15604,0.17873 0.15604,0.49365 z m -0.584441,-0.5816 q -0.181573,0 -0.29222,0.11348 -0.107809,0.11349 -0.127669,0.3206 h 0.802896 q -0.0057,-0.20995 -0.104972,-0.3206 -0.0993,-0.11348 -0.278035,-0.11348 z"
         style="fill:#000000;stroke:#000000;stroke-width:0.10583334"
         id="path1209" />
      <path
         d="m 93.029798,244.49845 q -0.348962,0 -0.553233,-0.17874 l 0.0766,-0.17022 q 0.110647,0.088 0.224131,0.12767 0.11632,0.0369 0.261012,0.0369 0.153203,0 0.232641,-0.0511 0.08228,-0.0539 0.08228,-0.1532 0,-0.0823 -0.05391,-0.13051 -0.05391,-0.0482 -0.178737,-0.0766 l -0.232641,-0.0539 q -0.1759,-0.0397 -0.269523,-0.13618 -0.09362,-0.0965 -0.09362,-0.23832 0,-0.18441 0.144691,-0.29789 0.144692,-0.11349 0.385844,-0.11349 0.144692,0 0.275198,0.0482 0.130506,0.0454 0.218456,0.13335 l -0.0766,0.16739 q -0.190085,-0.16172 -0.417052,-0.16172 -0.144691,0 -0.226967,0.0567 -0.07944,0.0539 -0.07944,0.15321 0,0.0823 0.04823,0.13334 0.05107,0.0482 0.161714,0.0738 l 0.235479,0.0567 q 0.192922,0.0454 0.286546,0.13901 0.09362,0.0908 0.09362,0.23832 0,0.18157 -0.147529,0.28938 -0.144692,0.10781 -0.397192,0.10781 z"
         style="fill:#000000;stroke:#000000;stroke-width:0.10583334"
         id="path1211" />
      <path
         d="m 93.890765,243.09693 h 0.289383 v 0.29222 h -0.289383 z m 0,1.09228 h 0.289383 v 0.28938 h -0.289383 z"
         style="fill:#000000;stroke:#000000;stroke-width:0.10583334"
         id="path1213" />
      <path
         d="m 96.620977,244.28283 v 0.19576 h -1.288039 v -0.1759 l 0.700761,-0.77169 q 0.141855,-0.15887 0.204271,-0.2837 0.06525,-0.12767 0.06525,-0.25534 0,-0.16455 -0.09646,-0.2525 -0.09646,-0.088 -0.272361,-0.088 -0.289383,0 -0.567418,0.2298 l -0.08795,-0.17874 q 0.119158,-0.11348 0.297895,-0.17873 0.181573,-0.0681 0.363147,-0.0681 0.275198,0 0.434075,0.14185 0.161714,0.14186 0.161714,0.38301 0,0.17306 -0.07944,0.33194 -0.0766,0.15888 -0.255338,0.35463 l -0.567417,0.61565 z"
         style="fill:#000000;stroke:#000000;stroke-width:0.10583334"
         id="path1215" />
    </g>
    <g
       transform="matrix(0.05449152,-0.25891034,0.25891034,0.05449152,74.287921,270.09907)"
       id="g853"
       style="fill-rule:evenodd;fill:none;stroke:#808000;stroke-width:0.37795398;stroke-miterlimit:4;stroke-dasharray:none">
      <path
         d="m 10.308,84.25 117.36,21.5 8.22,-41.123 z"
         id="path838"
         inkscape:connector-curvature="0"
         style="fill:none;stroke:#808000;stroke-width:0.37795398;stroke-linejoin:round;stroke-miterlimit:4;stroke-dasharray:none" />
      <path
         d="m 5.7542,84.118 131.63,-12.254 -10.31,34.746 z"
         id="path837"
         inkscape:connector-curvature="0"
         style="fill:none;stroke:#808000;stroke-width:0.37795398;stroke-linejoin:round;stroke-miterlimit:4;stroke-dasharray:none" />
      <path
         d="M 45.469,92.153 126.49,107.2 134.74,75.453 Z"
         id="path843"
         inkscape:connector-curvature="0"
         style="fill:none;stroke:#808000;stroke-width:0.37795398;stroke-miterlimit:4;stroke-dasharray:none" />
      <path
         d="M 36.382,78.482 135.34,64.256 133.7,74.565 Z"
         id="path848"
         inkscape:connector-curvature="0"
         style="fill:none;stroke:#808000;stroke-width:0.37795398;stroke-miterlimit:4;stroke-dasharray:none" />
      <path
         d="m 7.7286,84.443 129.19,-13.397 19.48,27.476 z"
         id="path839"
         inkscape:connector-curvature="0"
         style="fill:none;stroke:#808000;stroke-width:0.37795398;stroke-linejoin:round;stroke-miterlimit:4;stroke-dasharray:none" />
      <path
         d="m 6.4325,84.11 129.39,-19.084 0.57,-25.645 z"
         id="path840"
         inkscape:connector-curvature="0"
         style="fill:none;stroke:#808000;stroke-width:0.37795398;stroke-linejoin:round;stroke-miterlimit:4;stroke-dasharray:none" />
      <path
         d="m 7.4926,83.918 48.004,6.424 -2.334,-10.97 z"
         id="path841"
         inkscape:connector-curvature="0"
         style="fill:none;stroke:#808000;stroke-width:0.37795398;stroke-linejoin:round;stroke-miterlimit:4;stroke-dasharray:none" />
      <path
         d="m 7.0662,84.05 45.774,-6.266 -2.026,-10.526 z"
         id="path842"
         inkscape:connector-curvature="0"
         style="fill:none;stroke:#808000;stroke-width:0.37795398;stroke-linejoin:round;stroke-miterlimit:4;stroke-dasharray:none" />
      <path
         d="m 54.066,80.552 1.776,7.614 71.328,6.6 z"
         id="path850"
         inkscape:connector-curvature="0"
         style="fill:none;stroke:#808000;stroke-width:0.37795398;stroke-miterlimit:4;stroke-dasharray:none" />
      <path
         d="m 13.453,82.328 32.236,-12.183 1.269,7.614 z"
         id="path851"
         inkscape:connector-curvature="0"
         style="fill:none;stroke:#808000;stroke-width:0.37795398;stroke-miterlimit:4;stroke-dasharray:none" />
      <path
         d="m 12.945,84.105 33.506,-3.046 1.015,7.107 z"
         id="path852"
         inkscape:connector-curvature="0"
         style="fill:none;stroke:#808000;stroke-width:0.37795398;stroke-miterlimit:4;stroke-dasharray:none" />
    </g>
  </g>
</svg>
