<?xml version="1.0" encoding="UTF-8"?>
<!DOCTYPE svg PUBLIC "-//W3C//DTD SVG 1.1//EN" "http://www.w3.org/Graphics/SVG/1.1/DTD/svg11.dtd">
<svg version="1.1" xmlns="http://www.w3.org/2000/svg" xmlns:xlink="http://www.w3.org/1999/xlink" x="0px" y="0px" width="208" height="128" viewBox="0, 0, 208, 128">
  <g id="Layer1">
    <path d="M12,0 L196,0 C202.627,0 208,5.373 208,12 L208,116 C208,122.627 202.627,128 196,128 L12,128 C5.373,128 0,122.627 0,116 L0,12 C0,5.373 5.373,0 12,0 z" fill="#000000"/>
    <path d="M30,98 L30,30 L50,30 L70,55 L90,30 L110,30 L110,98 L90,98 L90,59 L70,84 L50,59 L50,98 L30,98 z" fill="#FFFFFF" fill-opacity="0.988"/>
    <path d="M155,98 L125,65 L145,65 L145,30 L165,30 L165,65 L185,65 L155,98 z" fill="#FFFFFF" fill-opacity="0.988"/>
  </g>
  <defs/>
</svg>
