<?xml version="1.0" encoding="UTF-8"?>
<!DOCTYPE svg PUBLIC "-//W3C//DTD SVG 1.1//EN" "http://www.w3.org/Graphics/SVG/1.1/DTD/svg11.dtd">
<svg version="1.1" xmlns="http://www.w3.org/2000/svg" xmlns:xlink="http://www.w3.org/1999/xlink" x="0px" y="0px" width="82" height="64" viewBox="0, 0, 82, 64">
  <g id="Layer 1">
    <path d="M64.269,23.269 C64.269,10.408 49.953,-0 32.274,-0 C14.595,-0 0.279,10.408 0.279,23.269 C0.279,30.632 5.005,37.222 12.368,41.494 C10.823,45.266 8.823,47.039 7.05,49.038 C6.55,49.629 5.96,50.175 6.141,51.038 C6.278,51.811 6.914,52.356 7.596,52.356 C7.641,52.356 7.687,52.356 7.732,52.356 C9.096,52.174 10.414,51.947 11.641,51.629 C16.231,50.447 20.503,48.493 24.275,45.812 C26.82,46.266 29.502,46.539 32.274,46.539 C49.953,46.539 64.269,36.131 64.269,23.269 z M81.721,34.904 C81.721,27.314 76.722,20.588 69.041,16.361 C69.723,18.588 70.087,20.906 70.087,23.269 C70.087,31.405 65.906,38.903 58.316,44.448 C51.271,49.538 42.045,52.356 32.274,52.356 C30.956,52.356 29.593,52.265 28.275,52.174 C33.956,55.901 41.5,58.173 49.726,58.173 C52.498,58.173 55.18,57.901 57.725,57.446 C61.497,60.128 65.769,62.082 70.359,63.264 C71.587,63.582 72.904,63.809 74.268,63.991 C74.995,64.082 75.677,63.491 75.859,62.673 C76.04,61.809 75.45,61.264 74.95,60.673 C73.177,58.673 71.177,56.901 69.632,53.129 C76.995,48.857 81.721,42.312 81.721,34.904 z" fill="#B81E1F"/>
  </g>
  <defs/>
</svg>
