<svg id="svg2" xmlns:rdf="http://www.w3.org/1999/02/22-rdf-syntax-ns#" xmlns="http://www.w3.org/2000/svg" xmlns:dsy="http://www.3ds.com/print" xlink="http://www.w3.org/1999/xlink" height="600" dsy:text-version="20000" width="600" version="1.1" xmlns:cc="http://creativecommons.org/ns#" viewBox="0 0 600 600" xmlns:dc="http://purl.org/dc/elements/1.1/">
 <title id="title4024">Swindon Hackspace Logo</title>
 <metadata id="metadata68">
  <rdf:RDF>
   <cc:Work rdf:about="">
    <dc:format>image/svg+xml</dc:format>
    <dc:type rdf:resource="http://purl.org/dc/dcmitype/StillImage"/>
    <dc:title>Swindon Hackspace Logo</dc:title>
    <cc:license rdf:resource="http://creativecommons.org/licenses/by-nc-sa/3.0/"/>
    <dc:date>03/08/2013</dc:date>
    <dc:creator>
     <cc:Agent>
      <dc:title>Steve Wood</dc:title>
     </cc:Agent>
    </dc:creator>
    <dc:publisher>
     <cc:Agent>
      <dc:title>Steve Wood</dc:title>
     </cc:Agent>
    </dc:publisher>
    <dc:contributor>
     <cc:Agent>
      <dc:title>Members of the Swindon Hackspace</dc:title>
     </cc:Agent>
    </dc:contributor>
    <dc:rights>
     <cc:Agent>
      <dc:title>Swindon Hackspace</dc:title>
     </cc:Agent>
    </dc:rights>
    <dc:source>https://github.com/snhack/HackspaceLogo</dc:source>
   </cc:Work>
   <cc:License rdf:about="http://creativecommons.org/licenses/by-nc-sa/3.0/">
    <cc:permits rdf:resource="http://creativecommons.org/ns#Reproduction"/>
    <cc:permits rdf:resource="http://creativecommons.org/ns#Distribution"/>
    <cc:requires rdf:resource="http://creativecommons.org/ns#Notice"/>
    <cc:requires rdf:resource="http://creativecommons.org/ns#Attribution"/>
    <cc:prohibits rdf:resource="http://creativecommons.org/ns#CommercialUse"/>
    <cc:permits rdf:resource="http://creativecommons.org/ns#DerivativeWorks"/>
    <cc:requires rdf:resource="http://creativecommons.org/ns#ShareAlike"/>
   </cc:License>
  </rdf:RDF>
 </metadata>
 <g id="layer1" transform="translate(0,390)">
  <path id="path3364" style="fill:#ffbb00;" d="m172.25-257.54,3.7317,13.927c0.71695,2.6777-0.22039,5.7275-2.3174,7.5403-7.0444,6.0922-13.647,12.695-19.74,19.739-1.8128,2.0972-4.8628,3.0345-7.5406,2.3174l-13.925-3.7317c-2.9034-0.77828-6.2312,0.41818-7.9744,2.8671-7.8927,11.094-14.73,22.938-20.39,35.32-1.2503,2.7334-0.62419,6.2136,1.5004,8.3398l10.197,10.194c1.9604,1.9602,2.6742,5.0703,1.7648,7.6891-3.0546,8.7986-5.4715,17.818-7.2256,26.965-0.52191,2.7221-2.6945,5.0581-5.3717,5.7758l-13.928,3.7317c-2.9029,0.77876-5.1853,3.479-5.4698,6.471-1.2887,13.553-1.2887,27.228,0,40.781,0.28446,2.992,2.5669,5.6922,5.4698,6.471l13.928,3.7317c2.6772,0.71762,4.8498,3.0537,5.3717,5.7758,2.6926,14.039,6.9502,27.778,12.669,40.879,1.148,2.6304,3.9368,4.4563,6.8067,4.4566h38.14c1.9437-0.000415,3.8753-0.8006,5.2499-2.1748l225.91-225.92c1.3752-1.3751,3.3081-2.1756,5.2529-2.1754h122.76c2.5131-0.00052,4.9842,1.373,6.3106,3.5076,15.724,25.304,27.294,53.183,34.108,82.185,6.8145,29.002,8.8708,59.116,6.0617,88.775-2.809,29.659-10.482,58.852-22.62,86.059s-28.736,52.418-48.931,74.32c-20.195,21.903-43.978,40.489-70.112,54.791s-54.609,24.315-83.943,29.518c-29.334,5.2026-59.516,5.5928-88.975,1.1502-29.459-4.4425-58.183-13.716-84.678-27.338-2.0708-1.0653-3.581-3.1568-3.9407-5.4576-0.35974-2.3008,0.43997-4.7534,2.0868-6.4l50.529-50.529c2.0153-2.0156,5.2472-2.704,7.909-1.6846,10.6,4.0598,21.558,7.1827,32.706,9.3202,2.7221,0.52191,5.0582,2.6945,5.7758,5.3717l3.7317,13.928c0.77876,2.9028,3.479,5.1853,6.471,5.4697,13.553,1.2887,27.228,1.2887,40.781,0,2.992-0.28446,5.6922-2.5669,6.471-5.4697l3.7317-13.928c0.71762-2.6772,3.0537-4.8498,5.7758-5.3717,9.147-1.7541,18.167-4.1711,26.965-7.2256,2.6188-0.90943,5.729-0.19559,7.6891,1.7648l10.194,10.197c2.1262,2.1246,5.6064,2.7507,8.3398,1.5004,12.382-5.6602,24.226-12.498,35.32-20.39,2.4489-1.7431,3.6454-5.0709,2.8671-7.9743l-3.7317-13.925c-0.71707-2.6777,0.22028-5.7277,2.3174-7.5406,7.0444-6.0925,13.647-12.695,19.74-19.74,1.8128-2.0972,4.8628-3.0345,7.5406-2.3174l13.925,3.7317c2.9034,0.77828,6.2312-0.41818,7.9744-2.8671,7.8927-11.094,14.73-22.938,20.39-35.32,1.2503-2.7334,0.62419-6.2136-1.5004-8.3398l-10.2-10.185c-1.9604-1.9602-2.6742-5.0703-1.7648-7.6891,3.0546-8.7986,5.4715-17.818,7.2256-26.965,0.52191-2.7221,2.6945-5.0581,5.3717-5.7758l13.928-3.7317c2.9029-0.77876,5.1853-3.479,5.4698-6.471,1.2887-13.553,1.2887-27.228,0-40.781-0.28447-2.992-2.5669-5.6922-5.4698-6.471l-13.928-3.7317c-2.6772-0.71762-4.8498-3.0536-5.3717-5.7758-2.6926-14.039-6.9502-27.778-12.669-40.879-1.148-2.6304-3.9368-4.4563-6.8067-4.4566h-38.14c-1.9437,0.00041-3.8753,0.80059-5.2499,2.1748l-225.91,225.92c-1.3753,1.3749-3.3082,2.1752-5.2529,2.1748h-122.76c-2.5134,0.000268-4.9845-1.3738-6.3106-3.5088-15.723-25.304-27.293-53.183-34.107-82.185-6.8142-29.002-8.8702-59.116-6.061-88.775s10.483-58.851,22.621-86.058,28.736-52.417,48.931-74.32c20.195-21.902,43.978-40.488,70.112-54.791,26.134-14.302,54.609-24.315,83.943-29.518,29.334-5.2026,59.515-5.5929,88.974-1.1505s58.183,13.716,84.678,27.337c2.0709,1.0653,3.5812,3.1568,3.9409,5.4577,0.35975,2.3009-0.44004,4.7536-2.087,6.4001l-50.529,50.529c-2.0154,2.0155-5.2473,2.7038-7.909,1.6843-10.6-4.0599-21.558-7.1829-32.706-9.3205-2.7222-0.522-5.0583-2.6949-5.7758-5.3723l-3.7317-13.927c-0.77803-2.9036-3.4785-5.1871-6.471-5.4718-13.553-1.2887-27.228-1.2887-40.781,0-2.9925,0.28475-5.693,2.5682-6.471,5.4718l-3.7317,13.927c-0.71743,2.6774-3.0535,4.8503-5.7758,5.3723-9.147,1.7539-18.167,4.1707-26.965,7.225-2.6188,0.9095-5.7289,0.19578-7.6891-1.7645l-10.194-10.196c-2.1256-2.1255-5.6059-2.7527-8.3398-1.5031-12.383,5.6605-24.226,12.498-35.32,20.391-2.449,1.743-3.6455,5.071-2.8671,7.9745z"/>
 </g>
 <g id="layer2" transform="translate(0,390)">
  <path id="path94" style="fill:#ff7700;" d="m494.46-95.258-52.554-52.574c-2.7519-2.7536-7.7606-2.7536-10.513,0-2.7517,2.7518-7.7579,2.7518-10.51,0l-63.069-63.09c-2.7517-2.7528-2.7517-7.762,0-10.515,2.7518-2.7528,2.7518-7.762,0-10.515l-52.554-52.574c-2.7519-2.7536-7.7606-2.7536-10.513,0l-84.088,84.119c-2.7517,2.7528-2.7517,7.762,0,10.515l52.557,52.574c2.7517,2.7518,7.7578,2.7518,10.51,0l10.513-10.515c2.7642-2.6956,7.7147-2.6638,10.444,0.0669,2.7294,2.7308,2.7604,7.6831,0.0654,10.448l-42.044,42.059c-2.766,2.6864-7.7072,2.6497-10.433-0.07733-2.7259-2.7271-2.7621-7.6701-0.0764-10.437l10.51-10.515c2.7519-2.7528,2.7519-7.7623,0-10.515l-52.557-52.574c-2.7517-2.7518-7.7578-2.7518-10.51,0l-84.089,84.118c-2.7526,2.7529-2.7526,7.7634,0,10.516l52.555,52.572c2.7519,2.7536,7.7606,2.7536,10.513,0,2.7517-2.7518,7.7579-2.7518,10.51,0l63.069,63.092c2.7509,2.7527,2.7509,7.7606,0,10.513-2.7526,2.7529-2.7526,7.7634,0,10.516l52.554,52.572c2.7519,2.7536,7.7606,2.7536,10.513,0l84.088-84.118c2.7508-2.7527,2.7508-7.7606,0-10.513l-52.57-52.561c-2.7517-2.7518-7.7578-2.7518-10.51,0l-10.513,10.513c-2.7682,2.6746-7.6976,2.6318-10.419-0.09071-2.7214-2.7223-2.7642-7.6535-0.0907-10.423l42.044-42.059c2.7682-2.6746,7.6977-2.6318,10.419,0.09071,2.7214,2.7223,2.7642,7.6535,0.0907,10.423l-10.51,10.516c-2.7508,2.7527-2.7508,7.7606,0,10.513l52.557,52.575c2.7517,2.7518,7.7579,2.7518,10.51,0l84.09-84.117c2.7526-2.7529,2.7526-7.7634,0-10.516z"/>
 </g>
</svg>
