<?xml version="1.0" encoding="UTF-8"?>
<!DOCTYPE svg PUBLIC "-//W3C//DTD SVG 1.1//EN" "http://www.w3.org/Graphics/SVG/1.1/DTD/svg11.dtd">
<svg version="1.1" xmlns="http://www.w3.org/2000/svg" xmlns:xlink="http://www.w3.org/1999/xlink" x="0px" y="0px" width="104" height="104" viewBox="0, 0, 104, 104">
  <g id="Layer 1">
    <path d="M104,51.964 Q104,62.414 100.093,71.833 Q96.186,81.252 88.727,88.716 Q81.268,96.109 71.891,100.055 Q62.514,104 52.071,104 Q41.628,104 32.145,100.055 Q22.661,96.109 15.273,88.716 Q7.814,81.252 3.907,71.833 Q-0,62.414 -0,51.964 Q-0,41.586 3.907,32.167 Q7.814,22.748 15.273,15.284 Q22.661,7.891 32.109,3.945 Q41.557,-0 51.929,-0 Q62.372,-0 71.749,3.91 Q81.126,7.82 88.727,15.284 Q96.186,22.748 100.093,32.167 Q104,41.586 104,51.964 z M90.741,38.555 L61.204,38.555 L51.94,10.383 L42.796,38.555 L13.259,38.555 L37.141,55.952 L27.937,84.305 L51.94,66.788 L76.063,84.305 L66.859,55.952 z" fill="#004444"/>
  </g>
  <defs/>
</svg>
