<?xml version="1.0" encoding="UTF-8"?>
<!DOCTYPE svg PUBLIC "-//W3C//DTD SVG 1.1//EN" "http://www.w3.org/Graphics/SVG/1.1/DTD/svg11.dtd">
<svg version="1.1" xmlns="http://www.w3.org/2000/svg" xmlns:xlink="http://www.w3.org/1999/xlink" x="0px" y="0px" width="600" height="600" viewBox="0, 0, 600, 600">
  <g id="Original">
    <path d="M575,300 C575,451.878 451.878,575 300,575 C148.122,575 25,451.878 25,300 C25,148.122 148.122,25 300,25 C451.878,25 575,148.122 575,300 z" fill="#ED1B24"/>
    <path d="M299.997,500.229 L237.274,437.506 L247.974,426.805 L173.194,352.019 L162.493,362.723 L99.768,300.004 L193.796,205.974 L256.525,268.694 L236.096,289.125 L248.929,301.964 L301.961,248.926 L289.128,236.095 L269.401,255.822 L206.671,193.096 L299.997,99.771 L362.724,162.494 L352.026,173.197 L426.798,247.977 L437.505,237.275 L500.232,300.004 L406.907,393.328 L344.177,330.602 L363.904,310.875 L351.806,298.776 L298.773,351.813 L310.868,363.907 L331.294,343.48 L394.029,406.215 z" fill="#FFFFFF"/>
  </g>
  <defs/>
</svg>
