<?xml version="1.0" encoding="UTF-8"?>
<!DOCTYPE svg PUBLIC "-//W3C//DTD SVG 1.1//EN" "http://www.w3.org/Graphics/SVG/1.1/DTD/svg11.dtd">
<svg version="1.1" xmlns="http://www.w3.org/2000/svg" xmlns:xlink="http://www.w3.org/1999/xlink" x="0px" y="0px" width="600" height="600" viewBox="0, 0, 600, 600">
  <g id="Hackspace" transform="translate(25.000000, 25.000000)" fill="#F57900">
      <path d="M188.85075,463.8535 L203.548125,449.1575 L100.843875,346.443625 L86.147875,361.1465 L0,275.0055 L129.138625,145.86275 L215.290625,232.002375 L187.23375,260.063375 L204.8585,277.696375 L277.69225,204.853 L260.0675,187.231 L232.9745,214.324 L146.8225,128.176125 L274.995875,0 L361.1465,86.1465 L346.451875,100.84525 L449.145125,203.550875 L463.849375,188.85075 L550,275.0055 L421.826625,403.178875 L335.67325,317.029625 L362.76625,289.936625 L346.15075,273.318375 L273.31425,346.16175 L289.927,362.77175 L317.97975,334.71625 L404.14,420.877875 L274.995875,550 L188.85075,463.8535 L188.85075,463.8535 Z M188.85075,463.8535" id="Shape"></path>
  </g>
  <defs/>
</svg>
