<?xml version="1.0" encoding="UTF-8" standalone="no"?>
<!-- Created with Inkscape (http://www.inkscape.org/) -->

<svg
   xmlns:dc="http://purl.org/dc/elements/1.1/"
   xmlns:cc="http://creativecommons.org/ns#"
   xmlns:rdf="http://www.w3.org/1999/02/22-rdf-syntax-ns#"
   xmlns:svg="http://www.w3.org/2000/svg"
   xmlns="http://www.w3.org/2000/svg"
   version="1.1"
   width="600"
   height="600"
   viewBox="0 0 600 600"
   id="svg2">
  <title
     id="title4024">Swindon Hackspace Logo</title>
  <metadata
     id="metadata68">
    <rdf:RDF>
      <cc:Work
         rdf:about="">
        <dc:format>image/svg+xml</dc:format>
        <dc:type
           rdf:resource="http://purl.org/dc/dcmitype/StillImage" />
        <dc:title>Swindon Hackspace Logo</dc:title>
        <cc:license
           rdf:resource="http://creativecommons.org/licenses/by-nc-sa/3.0/" />
        <dc:date>30/05/2013</dc:date>
        <dc:creator>
          <cc:Agent>
            <dc:title>Steve Wood</dc:title>
          </cc:Agent>
        </dc:creator>
        <dc:publisher>
          <cc:Agent>
            <dc:title>Steve Wood</dc:title>
          </cc:Agent>
        </dc:publisher>
        <dc:contributor>
          <cc:Agent>
            <dc:title>Members of the Swindon Hackspace</dc:title>
          </cc:Agent>
        </dc:contributor>
        <dc:rights>
          <cc:Agent>
            <dc:title>Swindon Hackspace</dc:title>
          </cc:Agent>
        </dc:rights>
        <dc:source>https://github.com/snhack/HackspaceLogo</dc:source>
      </cc:Work>
      <cc:License
         rdf:about="http://creativecommons.org/licenses/by-nc-sa/3.0/">
        <cc:permits
           rdf:resource="http://creativecommons.org/ns#Reproduction" />
        <cc:permits
           rdf:resource="http://creativecommons.org/ns#Distribution" />
        <cc:requires
           rdf:resource="http://creativecommons.org/ns#Notice" />
        <cc:requires
           rdf:resource="http://creativecommons.org/ns#Attribution" />
        <cc:prohibits
           rdf:resource="http://creativecommons.org/ns#CommercialUse" />
        <cc:permits
           rdf:resource="http://creativecommons.org/ns#DerivativeWorks" />
        <cc:requires
           rdf:resource="http://creativecommons.org/ns#ShareAlike" />
      </cc:License>
    </rdf:RDF>
  </metadata>
  <defs
     id="defs66">
    <filter
       color-interpolation-filters="sRGB"
       id="filter3217">
      <feFlood
         id="feFlood3219"
         result="flood"
         flood-color="rgb(0,0,0)"
         flood-opacity="0.5" />
      <feComposite
         in2="SourceGraphic"
         operator="in"
         in="flood"
         result="composite1"
         id="feComposite3221" />
      <feGaussianBlur
         id="feGaussianBlur3223"
         result="blur"
         stdDeviation="2" />
      <feOffset
         id="feOffset3225"
         result="offset"
         dx="0"
         dy="4" />
      <feComposite
         in2="offset"
         operator="over"
         in="SourceGraphic"
         result="composite2"
         id="feComposite3227" />
    </filter>
    <filter
       color-interpolation-filters="sRGB"
       id="filter3065">
      <feFlood
         result="flood"
         flood-color="rgb(0,0,0)"
         flood-opacity="0.501"
         id="feFlood3067" />
      <feComposite
         in2="SourceGraphic"
         operator="in"
         in="flood"
         result="composite1"
         id="feComposite3069" />
      <feOffset
         result="offset"
         dy="4"
         dx="0"
         id="feOffset3071" />
      <feComposite
         in2="offset"
         operator="over"
         in="SourceGraphic"
         result="composite2"
         id="feComposite3073" />
    </filter>
  </defs>
  <g
     id="layer3"
     style="display:none">
    <path
       d="m 273.2,570.22 a 66.358,48.857 0 1 1 -132.46,4.2581 h 66.358 z"
       transform="matrix(0,3.8729578,5.260286,0,-2723.4874,-502.85268)"
       id="path2998"
       style="fill:none;stroke:#777777;stroke-width:0.22155108" />
  </g>
  <g
     transform="translate(0,390)"
     id="layer2"
     style="filter:url(#filter3065)">
    <g
       id="g3213">
      <path
         d="m 236.71,84.459 c 9.4267,3.4255 19.131,6.0861 28.987,7.947 2.7321,0.51565 5.0801,2.6928 5.8004,5.3782 l 3.7103,13.845 c 0.78249,2.9199 3.5089,5.2111 6.5198,5.4793 12.266,1.0916 24.629,1.0916 36.895,0 3.011,-0.26818 5.7374,-2.5594 6.5198,-5.4793 l 3.7103,-13.845 c 0.72025,-2.6854 3.0683,-4.8626 5.8004,-5.3782 9.1496,-1.7282 18.169,-4.1455 26.956,-7.2245 2.625,-0.9199 5.7486,-0.2073 7.715,1.76 l 10.135,10.135 c 2.1381,2.1372 5.6454,2.7576 8.3869,1.4836 11.168,-5.1868 21.874,-11.367 31.951,-18.445 2.4732,-1.7384 3.6879,-5.0865 2.9046,-8.0064 l -3.7,-13.846 c -0.72074,-2.6859 0.22289,-5.7467 2.3309,-7.5605 7.0604,-6.0715 13.664,-12.675 19.735,-19.735 1.8138,-2.108 4.8745,-3.0516 7.5604,-2.3309 l 13.845,3.7074 c 2.9198,0.78324 6.2679,-0.43143 8.0064,-2.9047 7.0773,-10.077 13.258,-20.783 18.445,-31.951 1.2741,-2.7416 0.65369,-6.2488 -1.4835,-8.387 l -10.135,-10.135 c -1.9673,-1.9664 -2.6799,-5.09 -1.76,-7.7151 3.079,-8.7876 5.4962,-17.807 7.2244,-26.957 0.51565,-2.7321 2.6928,-5.0802 5.3782,-5.8004 l 13.845,-3.7104 c 2.9198,-0.7825 5.2111,-3.5089 5.4793,-6.5199 1.0916,-12.266 1.0916,-24.629 0,-36.895 -0.26817,-3.011 -2.5594,-5.7374 -5.4793,-6.5199 l -13.845,-3.7104 c -2.6854,-0.72025 -4.8626,-3.0683 -5.3782,-5.8004 -2.7948,-14.799 -7.3974,-29.255 -13.673,-42.946 -1.1779,-2.5689 -3.9287,-4.3341 -6.7547,-4.3347 h -30.025 c -1.945,4.1e-4 -3.8778,0.80112 -5.2533,2.1763 l -226.06,226.05 c -1.3762,1.3758 -3.3103,2.1766 -5.2563,2.1763 h -122.84 c -2.515,10e-4 -4.988,-1.374 -6.315,-3.51 -15.734,-25.322 -27.311,-53.219 -34.13,-82.24 -6.8187,-29.021 -8.876,-59.155 -6.065,-88.834 2.811,-29.679 10.489,-58.89 22.636,-86.115 12.146,-27.225 28.755,-52.452 48.963,-74.369 20.208,-21.917 44.007,-40.515 70.158,-54.827 26.151,-14.312 54.645,-24.331 83.998,-29.537 29.353,-5.2061 59.555,-5.5966 89.032,-1.1513 29.478,4.4453 58.221,13.725 84.734,27.356 2.0723,1.066 3.5836,3.1589 3.9435,5.4613 0.35999,2.3024 -0.44033,4.7568 -2.0884,6.4044 l -56.339,56.34 c -1.9862,1.9859 -5.1523,2.6888 -7.7923,1.73 -9.4267,-3.4256 -19.131,-6.0863 -28.987,-7.9472 -2.7325,-0.51594 -5.0807,-2.694 -5.8004,-5.38 l -3.7103,-13.846 c -0.78239,-2.92 -3.5088,-5.2114 -6.5198,-5.4796 -12.266,-1.0916 -24.629,-1.0916 -36.895,0 -3.011,0.26821 -5.7375,2.5596 -6.5198,5.4796 l -3.7103,13.846 c -0.71966,2.6861 -3.0679,4.8641 -5.8004,5.38 -9.1495,1.7279 -18.169,4.1449 -26.956,7.2236 -2.6249,0.92013 -5.7485,0.20789 -7.715,-1.7592 l -10.135,-10.136 c -2.1377,-2.1378 -5.645,-2.759 -8.3869,-1.4853 -11.168,5.1875 -21.874,11.369 -31.951,18.447 -2.473,1.7382 -3.6876,5.086 -2.9046,8.0057 l 3.7074,13.846 c 0.72074,2.6857 -0.22288,5.7465 -2.3308,7.5603 -7.0604,6.0715 -13.664,12.675 -19.735,19.735 -1.8138,2.108 -4.8745,3.0516 -7.5604,2.3309 l -13.845,-3.7074 c -2.9198,-0.78324 -6.2679,0.43142 -8.0064,2.9047 -7.0773,10.077 -13.258,20.783 -18.445,31.951 -1.2741,2.7416 -0.65369,6.2488 1.4835,8.387 l 10.135,10.135 c 1.9673,1.9664 2.6799,5.09 1.76,7.7151 -3.079,8.7876 -5.4962,17.807 -7.2244,26.957 -0.51564,2.7321 -2.6928,5.0802 -5.3782,5.8004 l -13.845,3.7104 c -2.9199,0.7825 -5.2111,3.5089 -5.4793,6.5199 -1.0916,12.266 -1.0916,24.629 0,36.895 0.26818,3.011 2.5594,5.7374 5.4793,6.5199 l 13.845,3.7104 c 2.6854,0.72025 4.8626,3.0683 5.3782,5.8004 2.7948,14.799 7.3974,29.255 13.673,42.946 1.1779,2.5689 3.9287,4.3341 6.7547,4.3347 h 30.025 c 1.945,-4.151e-4 3.8778,-0.80113 5.2533,-2.1763 l 226.06,-226.06 c 1.3761,-1.376 3.3103,-2.1771 5.2563,-2.1769 h 122.84 c 2.5148,-5.2e-4 4.9875,1.3739 6.3147,3.51 15.734,25.321 27.312,53.219 34.131,82.24 6.819,29.021 8.8766,59.155 6.0657,88.834 -2.8108,29.679 -10.489,58.891 -22.635,86.116 -12.146,27.225 -28.755,52.453 -48.963,74.37 -20.208,21.917 -44.007,40.516 -70.158,54.828 -26.151,14.312 -54.645,24.332 -83.999,29.538 -29.353,5.206 -59.555,5.5965 -89.033,1.151 -29.478,-4.4455 -58.221,-13.725 -84.734,-27.356 -2.0722,-1.066 -3.5834,-3.1588 -3.9433,-5.4612 -0.35997,-2.3024 0.44026,-4.7566 2.0882,-6.4042 l 56.339,-56.341 c 1.9868,-1.9865 5.1528,-2.6883 7.7923,-1.7288 z"
         id="path90"
         style="fill:#ffbb00" />
      <path
         d="m 494.46,-95.258 -52.554,-52.574 c -2.7519,-2.7536 -7.7606,-2.7536 -10.513,0 -2.7517,2.7518 -7.7579,2.7518 -10.51,0 l -63.069,-63.09 c -2.7517,-2.7528 -2.7517,-7.762 0,-10.515 2.7518,-2.7528 2.7518,-7.762 0,-10.515 l -52.554,-52.574 c -2.7519,-2.7536 -7.7606,-2.7536 -10.513,0 l -84.088,84.119 c -2.7517,2.7528 -2.7517,7.762 0,10.515 l 52.557,52.574 c 2.7517,2.7518 7.7578,2.7518 10.51,0 l 10.513,-10.515 c 2.7642,-2.6956 7.7147,-2.6638 10.444,0.0669 2.7294,2.7308 2.7604,7.6831 0.0654,10.448 l -42.044,42.059 c -2.766,2.6864 -7.7072,2.6497 -10.433,-0.07733 -2.7259,-2.7271 -2.7621,-7.6701 -0.0764,-10.437 l 10.51,-10.515 c 2.7519,-2.7528 2.7519,-7.7623 0,-10.515 l -52.557,-52.574 c -2.7517,-2.7518 -7.7578,-2.7518 -10.51,0 l -84.089,84.118 c -2.7526,2.7529 -2.7526,7.7634 0,10.516 l 52.555,52.572 c 2.7519,2.7536 7.7606,2.7536 10.513,0 2.7517,-2.7518 7.7579,-2.7518 10.51,0 l 63.069,63.092 c 2.7509,2.7527 2.7509,7.7606 0,10.513 -2.7526,2.7529 -2.7526,7.7634 0,10.516 l 52.554,52.572 c 2.7519,2.7536 7.7606,2.7536 10.513,0 l 84.088,-84.118 c 2.7508,-2.7527 2.7508,-7.7606 0,-10.513 l -52.57,-52.561 c -2.7517,-2.7518 -7.7578,-2.7518 -10.51,0 l -10.513,10.513 c -2.7682,2.6746 -7.6976,2.6318 -10.419,-0.09071 -2.7214,-2.7223 -2.7642,-7.6535 -0.0907,-10.423 l 42.044,-42.059 c 2.7682,-2.6746 7.6977,-2.6318 10.419,0.09071 2.7214,2.7223 2.7642,7.6535 0.0907,10.423 l -10.51,10.516 c -2.7508,2.7527 -2.7508,7.7606 0,10.513 l 52.557,52.575 c 2.7517,2.7518 7.7579,2.7518 10.51,0 l 84.088,-84.118 c 2.7526,-2.7529 2.7526,-7.7634 0,-10.516 z"
         id="path94"
         style="fill:#ff7700" />
    </g>
  </g>
</svg>
