<?xml version="1.0" encoding="UTF-8"?>
<!DOCTYPE svg PUBLIC "-//W3C//DTD SVG 1.1//EN" "http://www.w3.org/Graphics/SVG/1.1/DTD/svg11.dtd">
<svg version="1.1" xmlns="http://www.w3.org/2000/svg" xmlns:xlink="http://www.w3.org/1999/xlink" x="0px" y="0px" width="76" height="64" viewBox="0, 0, 76, 64">
  <g id="Layer 1">
    <path d="M29.273,43.636 C29.273,40.318 27.545,34.909 23.455,34.909 C19.364,34.909 17.636,40.318 17.636,43.636 C17.636,46.955 19.364,52.364 23.455,52.364 C27.545,52.364 29.273,46.955 29.273,43.636 z M58.364,43.636 C58.364,40.318 56.636,34.909 52.545,34.909 C48.455,34.909 46.727,40.318 46.727,43.636 C46.727,46.955 48.455,52.364 52.545,52.364 C56.636,52.364 58.364,46.955 58.364,43.636 z M65.636,43.636 C65.636,57.545 52.909,59.682 41.818,59.682 L34.182,59.682 C23.091,59.682 10.364,57.545 10.364,43.636 C10.364,36.682 14.591,30.545 22,30.545 C25,30.545 27.909,31.091 30.864,31.5 C33.227,31.864 35.591,32 38,32 C40.409,32 42.773,31.864 45.136,31.5 C48.136,31.091 51,30.545 54,30.545 C61.409,30.545 65.636,36.682 65.636,43.636 z M75.818,35.636 C75.818,29 74,22.682 69.636,17.545 C70.455,15.091 70.864,12.5 70.864,9.909 C70.864,6.5 70.091,3.091 68.545,-0 C61.455,-0 56.864,3.045 51.455,7.273 C47.318,6.273 43,5.818 38.727,5.818 C34,5.818 29.273,6.318 24.682,7.409 C19.227,3.136 14.636,-0 7.455,-0 C5.909,3.091 5.136,6.5 5.136,9.909 C5.136,12.5 5.545,15.136 6.364,17.636 C2,22.727 0.182,29 0.182,35.636 C0.182,40.682 0.682,46.091 3,50.682 C9.227,62.955 26.727,64 38.727,64 C50.545,64 67.045,62.818 73.045,50.682 C75.318,46.045 75.818,40.682 75.818,35.636 z" fill="#000000"/>
  </g>
  <defs/>
</svg>
