<?xml version="1.0" encoding="UTF-8"?>
<!DOCTYPE svg PUBLIC "-//W3C//DTD SVG 1.1//EN" "http://www.w3.org/Graphics/SVG/1.1/DTD/svg11.dtd">
<svg version="1.1" xmlns="http://www.w3.org/2000/svg" xmlns:xlink="http://www.w3.org/1999/xlink" x="0px" y="0px" width="64" height="64" viewBox="0, 0, 64, 64">
  <g id="Layer1">
    <path d="M31.792,65 C27.528,65.006 23.278,64.264 19.285,62.765 C19.289,59.169 20.431,55.958 23.453,53.847 C22.063,53.777 20.43,53.534 18.554,53.117 C15.01,52.492 11.987,51.38 9.485,49.782 C3.162,45.96 0,39.045 0,29.039 C0,23.827 1.737,19.38 5.212,15.697 C3.613,11.597 3.787,7.15 5.733,2.355 L7.818,2.355 C8.513,2.355 9.381,2.529 10.423,2.876 C13.134,3.71 16.156,5.239 19.492,7.462 C23.731,6.351 27.9,5.795 32,5.795 C36.1,5.795 40.304,6.351 44.612,7.462 C47.322,5.656 49.859,4.266 52.221,3.293 C54.445,2.459 56.043,2.112 57.016,2.251 L58.2,2.349 C58.235,2.384 58.282,2.41 58.305,2.454 C58.661,3.134 59.065,4.676 59.254,5.452 C60.097,8.909 59.993,12.341 58.788,15.697 C62.263,19.38 64,23.827 64,29.039 C64,36.822 62.089,42.694 58.267,46.655 C56.182,48.878 53.438,50.616 50.033,51.866 C47.184,52.909 44.022,53.569 40.547,53.847 C43.567,55.995 44.653,58.947 44.817,62.54 L44.817,62.571 C41.55,63.861 38.09,64.634 34.588,64.896 C33.97,64.943 33.349,64.958 32.73,64.988 z" fill="#000000"/>
  </g>
  <defs/>
</svg>
